<?xml version="1.0" encoding="UTF-8" standalone="no"?>
<!-- Created with Inkscape (http://www.inkscape.org/) -->
<svg
   xmlns:svg="http://www.w3.org/2000/svg"
   xmlns="http://www.w3.org/2000/svg"
   version="1.0"
   width="795.86218"
   height="62.149605"
   id="svg1978">
  <defs
     id="defs1980">
  
  
  
  
  
  
  
  
  
  
  
  
  
  
  
  
  
  
  
  
  
  
  
  
  
  
  
  
  
  
  
  
  
  
  
  
  
  
  
  
  
  
  
  
  
  
  
  
  
  
  
  
 </defs>
  <g
     transform="translate(548.7145,-413.7263)"
     id="layer1">
    <g
       transform="matrix(0.651774,0,0,0.651774,87.67662,147.612)"
       id="g36213">
      <path
         d="M -873.29201,415.51293 L -879.4179,449.4608 L -896.26409,449.4608 L -893.7115,434.65643 L -903.92146,434.65643 L -911.06826,477.02731 L -903.4109,477.02731 L -906.72912,496.17081 L -956.75736,496.17081 L -953.18385,477.02731 L -945.52649,477.02731 L -938.12441,434.65643 L -948.07888,434.65643 L -950.88675,449.4608 L -967.47766,449.4608 L -961.60705,415.51293 L -873.29201,415.51293"
         style="fill:#221f1f;fill-rule:nonzero;stroke:none"
         id="path32513" />
      <path
         d="M -873.29201,415.51293 L -872.78145,415.51293 L -878.90734,449.71588 L -878.90734,450.22644 L -897.02973,450.22644 L -897.02973,449.4608 L -894.22206,434.65643 L -893.7115,434.65643 L -893.7115,435.42227 L -903.92146,435.42227 L -903.92146,434.65643 L -903.15562,434.91171 L -910.5579,477.02731 L -911.06826,477.02731 L -911.06826,476.26147 L -902.64526,476.26147 L -902.64526,477.02731 L -906.21856,496.42589 L -906.21856,496.93645 L -957.52299,496.93645 L -957.26791,496.17081 L -953.94969,476.77203 L -953.69441,476.26147 L -945.52649,476.26147 L -945.52649,477.02731 L -946.03705,476.77203 L -938.63497,434.65643 L -938.12441,434.65643 L -938.12441,435.42227 L -948.07888,435.42227 L -948.07888,434.65643 L -947.56852,434.91171 L -950.37619,449.71588 L -950.37619,450.22644 L -968.2435,450.22644 L -968.2435,449.4608 L -962.11741,414.74729 L -872.52617,414.74729 L -872.78145,415.51293 L -873.29201,415.51293 L -873.29201,416.27876 L -961.60705,416.27876 L -961.60705,415.51293 L -961.09649,415.51293 L -966.9671,449.71588 L -967.47766,449.4608 L -967.47766,448.95024 L -950.88675,448.95024 L -950.88675,449.4608 L -951.3971,449.4608 L -948.84471,434.65643 L -948.58943,434.14587 L -937.35857,434.14587 L -937.61385,434.91171 L -944.76086,477.02731 L -945.01593,477.53786 L -953.18385,477.53786 L -953.18385,477.02731 L -952.6735,477.02731 L -955.99152,496.42589 L -956.75736,496.17081 L -956.75736,495.66025 L -906.72912,495.66025 L -906.72912,496.17081 L -907.23968,496.17081 L -903.92146,476.77203 L -903.4109,477.02731 L -903.4109,477.53786 L -911.8341,477.53786 L -911.8341,476.77203 L -904.43201,434.65643 L -904.43201,434.14587 L -892.94587,434.14587 L -892.94587,434.91171 L -895.75353,449.71588 L -896.26409,449.4608 L -896.26409,448.95024 L -879.4179,448.95024 L -879.4179,449.4608 L -879.92825,449.4608 L -874.05764,415.25785 L -873.29201,415.51293 L -873.29201,416.27876 L -873.29201,415.51293"
         style="fill:#221e1f;fill-rule:nonzero;stroke:none"
         id="path32515" />
      <path
         d="M -882.22556,496.17081 L -878.65206,477.02731 L -872.01561,477.02731 L -864.61353,434.65643 L -871.24998,434.65643 L -867.93175,415.51293 L -821.22174,415.51293 L -824.53997,434.65643 L -830.1553,434.65643 L -832.45261,447.16349 L -811.77763,447.16349 L -809.7356,434.65643 L -815.35113,434.65643 L -812.03291,415.51293 L -765.06762,415.51293 L -768.64112,434.65643 L -775.27737,434.65643 L -782.67965,477.02731 L -776.0432,477.02731 L -779.36143,496.17081 L -826.07144,496.17081 L -822.75321,477.02731 L -817.13788,477.02731 L -814.84057,463.75441 L -835.26027,463.75441 L -837.55738,477.02731 L -831.94205,477.02731 L -835.26027,496.17081 L -882.22556,496.17081"
         style="fill:#221e1f;fill-rule:nonzero;stroke:none"
         id="path32517" />
      <path
         d="M -882.22556,496.17081 L -882.73592,496.17081 L -879.4179,476.77203 L -879.16262,476.26147 L -872.01561,476.26147 L -872.01561,477.02731 L -872.52617,476.77203 L -865.12409,434.65643 L -864.61353,434.65643 L -864.61353,435.42227 L -872.01561,435.42227 L -872.01561,434.65643 L -868.44231,415.25785 L -868.44231,414.74729 L -820.4559,414.74729 L -820.71118,415.51293 L -824.02941,434.91171 L -824.02941,435.42227 L -830.1553,435.42227 L -830.1553,434.65643 L -829.64494,434.91171 L -831.68677,447.41877 L -832.45261,447.16349 L -832.45261,446.65293 L -811.77763,446.65293 L -811.77763,447.16349 L -812.54347,447.16349 L -810.24616,434.65643 L -809.7356,434.65643 L -809.7356,435.42227 L -816.11677,435.42227 L -815.86149,434.65643 L -812.54347,415.25785 L -812.54347,414.74729 L -764.30198,414.74729 L -764.55706,415.51293 L -768.13056,434.91171 L -768.13056,435.42227 L -775.27737,435.42227 L -775.27737,434.65643 L -774.76701,434.91171 L -782.16909,477.02731 L -782.67965,477.02731 L -782.67965,476.26147 L -775.27737,476.26147 L -775.27737,477.02731 L -778.85087,496.42589 L -778.85087,496.93645 L -826.83707,496.93645 L -826.83707,496.17081 L -823.51885,476.77203 L -823.26377,476.26147 L -817.13788,476.26147 L -817.13788,477.02731 L -817.64824,476.77203 L -815.35113,463.49933 L -814.84057,463.75441 L -814.84057,464.26497 L -835.26027,464.26497 L -835.26027,463.75441 L -834.74971,463.75441 L -837.04702,477.02731 L -837.55738,477.02731 L -837.55738,476.26147 L -831.17641,476.26147 L -831.43149,477.02731 L -834.74971,496.42589 L -834.74971,496.93645 L -882.9912,496.93645 L -882.73592,496.17081 L -882.22556,496.17081 L -882.22556,495.66025 L -835.26027,495.66025 L -835.26027,496.17081 L -836.02591,496.17081 L -832.70789,476.77203 L -831.94205,477.02731 L -831.94205,477.53786 L -838.32322,477.53786 L -838.32322,476.77203 L -835.77083,463.49933 L -835.77083,462.98877 L -814.07494,462.98877 L -814.07494,463.75441 L -816.37204,477.02731 L -816.62732,477.53786 L -822.75321,477.53786 L -822.75321,477.02731 L -822.24266,477.02731 L -825.56088,496.42589 L -826.07144,496.17081 L -826.07144,495.66025 L -779.36143,495.66025 L -779.36143,496.17081 L -780.12706,496.17081 L -776.55376,476.77203 L -776.0432,477.02731 L -776.0432,477.53786 L -783.44529,477.53786 L -783.44529,476.77203 L -776.0432,434.14587 L -768.64112,434.14587 L -768.64112,434.65643 L -769.15148,434.65643 L -765.83346,415.25785 L -765.06762,415.51293 L -765.06762,416.27876 L -812.03291,416.27876 L -812.03291,415.51293 L -811.26707,415.51293 L -814.58529,434.91171 L -815.35113,434.65643 L -815.35113,434.14587 L -808.96996,434.14587 L -809.22524,434.91171 L -811.26707,447.41877 L -811.26707,447.92933 L -833.21824,447.92933 L -832.96296,447.16349 L -830.92113,434.65643 L -830.66586,434.14587 L -824.53997,434.14587 L -824.53997,434.65643 L -825.05052,434.65643 L -821.98738,415.25785 L -821.22174,415.51293 L -821.22174,416.27876 L -867.93175,416.27876 L -867.93175,415.51293 L -867.16591,415.51293 L -870.73942,434.91171 L -871.24998,434.65643 L -871.24998,434.14587 L -863.84789,434.14587 L -863.84789,434.91171 L -871.24998,477.02731 L -871.50526,477.53786 L -878.65206,477.53786 L -878.65206,477.02731 L -878.1415,477.02731 L -881.45972,496.42589 L -882.22556,496.17081 L -882.22556,495.66025 L -882.22556,496.17081"
         style="fill:#221e1f;fill-rule:nonzero;stroke:none"
         id="path32519" />
      <path
         d="M -720.39964,433.12496 L -710.44497,433.12496 C -704.31908,433.12496 -701.25613,435.42227 -701.25613,439.50613 C -701.25613,442.56907 -702.53232,444.86639 -705.33999,446.39786 C -707.38202,447.92933 -710.18969,448.43968 -713.50791,448.43968 L -723.2073,448.43968 L -720.39964,433.12496 z M -724.99406,496.17081 L -721.42055,477.02731 L -728.057,477.02731 L -725.75969,463.24405 L -714.7841,463.24405 L -701.25613,496.17081 L -669.35049,496.17081 L -665.77699,477.02731 L -672.15816,477.02731 L -681.34699,458.39436 C -676.49729,456.60761 -672.66851,453.79994 -669.60557,449.71588 C -666.28755,445.37674 -664.75607,440.78232 -664.75607,435.93263 C -664.75607,431.33821 -666.28755,427.25435 -669.35049,423.93613 C -672.92379,420.10734 -679.30496,417.29968 -688.23851,416.27876 C -692.32258,415.76821 -699.46938,415.51293 -709.67933,415.51293 L -758.94173,415.51293 L -762.25995,434.65643 L -755.11294,434.65643 L -762.25995,477.02731 L -769.66203,477.02731 L -773.23554,496.17081 L -724.99406,496.17081"
         style="fill:#221e1f;fill-rule:nonzero;stroke:none"
         id="path32521" />
      <path
         d="M -720.39964,433.12496 L -720.39964,432.6144 L -710.44497,432.6144 C -707.38202,432.6144 -705.08491,433.12496 -703.29816,434.14587 C -701.51141,435.42227 -700.4905,437.20882 -700.4905,439.50613 C -700.4905,442.82435 -702.02197,445.37674 -705.08491,447.16349 L -705.33999,446.39786 L -704.82963,447.16349 C -707.12674,448.43968 -710.18969,449.20552 -713.50791,449.20552 L -723.97294,449.20552 L -723.71786,448.43968 L -720.90999,433.12496 L -720.90999,432.6144 L -720.39964,432.6144 L -720.39964,433.12496 L -719.88908,433.38024 L -722.44147,448.69496 L -723.2073,448.43968 L -723.2073,447.92933 L -713.50791,447.92933 C -710.18969,447.92933 -707.6373,447.16349 -705.59527,445.8873 C -703.04288,444.35583 -701.76669,442.3138 -701.76669,439.50613 C -702.02197,435.67735 -704.57436,433.8908 -710.44497,433.8908 L -720.39964,433.8908 L -720.39964,433.12496 L -719.88908,433.38024 L -720.39964,433.12496 M -724.99406,496.17081 L -725.50441,496.17081 L -722.18639,476.77203 L -721.42055,477.02731 L -721.42055,477.53786 L -728.82263,477.53786 L -728.82263,476.77203 L -726.27025,463.24405 L -726.27025,462.7335 L -714.52903,462.7335 L -714.27375,462.98877 L -700.74557,495.91553 L -701.25613,496.17081 L -701.25613,495.66025 L -669.35049,495.66025 L -669.35049,496.17081 L -669.86084,496.17081 L -666.54262,476.77203 L -665.77699,477.02731 L -665.77699,477.53786 L -672.66851,477.53786 L -672.92379,477.28259 L -681.85755,458.64964 L -682.11262,458.13908 L -681.60227,457.8838 C -676.75257,456.09705 -673.17907,453.28938 -670.11612,449.20552 C -667.05318,445.12146 -665.52171,440.78232 -665.52171,435.93263 C -665.52171,431.33821 -667.05318,427.50963 -669.86084,424.44669 L -669.35049,423.93613 L -669.86084,424.44669 C -673.17907,420.6179 -679.56024,418.06552 -688.49379,417.0444 L -688.23851,416.27876 L -688.49379,417.0444 C -692.32258,416.53404 -699.46938,416.27876 -709.67933,416.27876 L -758.94173,416.27876 L -758.94173,415.51293 L -758.17589,415.51293 L -761.74939,434.91171 L -762.25995,434.65643 L -762.25995,434.14587 L -754.34731,434.14587 L -754.34731,434.91171 L -761.74939,477.02731 L -761.74939,477.53786 L -769.66203,477.53786 L -769.66203,477.02731 L -769.15148,477.02731 L -772.4697,496.42589 L -773.23554,496.17081 L -773.23554,495.66025 L -724.99406,495.66025 L -724.99406,496.17081 L -725.50441,496.17081 L -724.99406,496.17081 L -724.99406,496.93645 L -773.74589,496.93645 L -773.74589,496.17081 L -770.17259,476.77203 L -770.17259,476.26147 L -762.25995,476.26147 L -762.25995,477.02731 L -763.02559,476.77203 L -755.6235,434.65643 L -755.11294,434.65643 L -755.11294,435.42227 L -763.02559,435.42227 L -763.02559,434.65643 L -759.45229,415.25785 L -759.45229,414.74729 L -709.67933,414.74729 C -699.46938,414.74729 -692.32258,415.00257 -688.23851,415.51293 C -679.04968,416.78932 -672.66851,419.59699 -668.83993,423.68085 C -665.77699,426.99907 -664.24551,431.08293 -664.24551,435.93263 C -664.24551,441.0376 -665.77699,445.63202 -669.09521,449.97116 C -672.15816,454.31029 -676.24201,457.37324 -681.09171,459.15999 L -681.34699,458.39436 L -680.83643,458.13908 L -671.6476,476.51675 L -672.15816,477.02731 L -672.15816,476.26147 L -665.01115,476.26147 L -665.26643,477.02731 L -668.58465,496.42589 L -668.83993,496.93645 L -701.76669,496.93645 L -702.02197,496.42589 L -715.54994,463.49933 L -714.7841,463.24405 L -714.7841,464.00969 L -725.75969,464.00969 L -725.75969,463.24405 L -724.99406,463.49933 L -727.54644,477.02731 L -728.057,477.02731 L -728.057,476.26147 L -720.65492,476.26147 L -720.90999,477.02731 L -724.22822,496.42589 L -724.22822,496.93645 L -724.99406,496.93645 L -724.99406,496.17081"
         style="fill:#221e1f;fill-rule:nonzero;stroke:none"
         id="path32523" />
      <path
         d="M -657.09851,434.65643 L -653.78049,415.51293 L -608.09139,415.51293 L -611.66489,434.65643 L -616.00403,434.65643 L -621.10901,464.52025 C -621.61936,467.07263 -621.87464,469.11466 -621.87464,470.64614 C -621.87464,475.75111 -619.32226,478.55878 -614.47256,478.55878 C -610.64378,478.55878 -607.83611,477.02731 -606.04936,473.70908 C -605.02844,471.92233 -604.26261,468.60411 -603.24169,464.00969 L -598.13672,434.65643 L -602.73113,434.65643 L -599.15783,415.51293 L -565.9758,415.51293 L -569.29402,434.65643 L -576.18554,434.65643 L -581.80108,466.307 C -585.37458,486.98177 -599.41291,497.44701 -623.91667,497.44701 C -645.35729,497.44701 -656.33287,489.27909 -656.33287,473.19852 C -656.33287,470.13558 -656.07759,467.07263 -655.31196,464.00969 L -650.20698,434.65643 L -657.09851,434.65643"
         style="fill:#221e1f;fill-rule:nonzero;stroke:none"
         id="path32525" />
      <path
         d="M -657.09851,434.65643 L -657.60907,434.65643 L -654.29084,415.25785 L -654.29084,414.74729 L -607.32555,414.74729 L -607.58083,415.51293 L -610.89905,434.91171 L -611.15433,435.42227 L -616.00403,435.42227 L -616.00403,434.65643 L -615.23819,434.91171 L -620.59845,464.52025 C -620.85373,467.32791 -621.10901,469.36994 -621.10901,470.64614 C -621.10901,475.75111 -619.06698,477.79294 -614.47256,477.79294 C -610.89905,477.79294 -608.34667,476.51675 -606.8152,473.4538 C -605.79408,471.66705 -604.77317,468.60411 -604.00753,463.75441 L -598.64728,434.65643 L -598.13672,434.65643 L -598.13672,435.42227 L -603.49697,435.42227 L -603.24169,434.65643 L -599.66819,415.25785 L -599.66819,414.74729 L -565.20996,414.74729 L -565.20996,415.51293 L -568.52818,434.91171 L -568.78346,435.42227 L -576.18554,435.42227 L -576.18554,434.65643 L -575.67519,434.91171 L -581.03524,466.307 C -584.60874,487.49233 -599.15783,498.21264 -623.91667,498.21264 C -634.63698,498.21264 -643.05998,496.17081 -648.42023,491.83147 C -654.03556,487.74761 -656.84343,481.36644 -656.84343,473.19852 C -656.84343,470.13558 -656.58815,467.07263 -656.07759,464.00969 L -650.97262,434.65643 L -650.20698,434.65643 L -650.20698,435.42227 L -657.86434,435.42227 L -657.60907,434.65643 L -657.09851,434.65643 L -657.09851,434.14587 L -649.44114,434.14587 L -649.69642,434.91171 L -654.8014,464.26497 C -655.31196,467.32791 -655.56703,470.13558 -655.56703,473.19852 C -655.56703,489.02381 -645.35729,496.68117 -623.91667,496.93645 C -599.66819,496.68117 -585.88494,486.7267 -582.31143,466.05172 L -576.95138,434.65643 L -576.6961,434.14587 L -569.29402,434.14587 L -569.29402,434.65643 L -569.80458,434.65643 L -566.48636,415.25785 L -565.9758,415.51293 L -565.9758,416.27876 L -599.15783,416.27876 L -599.15783,415.51293 L -598.64728,415.51293 L -601.9655,434.91171 L -602.73113,434.65643 L -602.73113,434.14587 L -597.37108,434.14587 L -597.37108,434.91171 L -602.73113,464.00969 C -603.49697,468.85938 -604.51789,472.17761 -605.539,473.96436 L -606.04936,473.70908 L -605.539,473.96436 C -607.32555,477.28259 -610.3885,479.06934 -614.47256,479.06934 C -617.02494,479.06934 -619.06698,478.3035 -620.34317,477.02731 C -621.87464,475.49583 -622.3852,473.19852 -622.3852,470.64614 C -622.3852,469.11466 -622.12992,467.07263 -621.87464,464.26497 L -616.51439,434.65643 L -616.51439,434.14587 L -611.66489,434.14587 L -611.66489,434.65643 L -612.17525,434.65643 L -608.85702,415.25785 L -608.09139,415.51293 L -608.09139,416.27876 L -653.78049,416.27876 L -653.78049,415.51293 L -653.01465,415.51293 L -656.58815,434.91171 L -657.09851,434.65643 L -657.09851,434.14587 L -657.09851,434.65643"
         style="fill:#221e1f;fill-rule:nonzero;stroke:none"
         id="path32527" />
      <path
         d="M -574.14372,496.17081 L -569.5493,470.13558 L -549.63995,470.13558 C -548.10848,477.28259 -544.2799,480.85588 -537.89873,480.85588 C -533.30432,480.85588 -530.49665,479.06934 -529.98609,475.75111 C -529.47553,473.19852 -531.26229,470.90142 -535.34635,468.60411 C -536.11198,468.09375 -539.17493,466.81735 -544.2799,464.52025 C -558.06315,458.64964 -564.95488,451.24735 -564.95488,442.3138 C -564.95488,441.0376 -564.95488,439.50613 -564.6996,438.22994 C -563.16813,430.82785 -559.33935,424.70176 -553.21346,420.6179 C -547.34285,416.53404 -540.45112,414.23673 -532.53848,414.23673 C -524.88112,414.23673 -518.75523,416.53404 -513.90553,420.6179 L -513.1399,415.51293 L -493.23076,415.51293 L -497.05933,438.48522 L -516.96848,438.48522 L -517.22375,437.4641 C -518.49995,431.84877 -522.32873,429.0411 -528.19934,429.0411 C -532.53848,429.0411 -535.09107,430.57257 -535.60142,433.8908 C -536.11198,436.18791 -534.06995,438.22994 -530.24137,440.52704 C -527.17843,441.80324 -524.37076,443.07963 -521.30782,444.35583 C -514.16081,447.67405 -509.05604,450.737 -506.24817,453.54466 C -501.65375,457.62852 -499.35664,462.7335 -499.35664,469.11466 C -499.35664,477.53786 -503.18522,484.68467 -511.09787,490.3 C -517.47903,494.89442 -524.88112,497.19173 -533.04904,497.19173 C -540.96168,497.19173 -547.59813,495.1497 -553.21346,490.81056 L -554.23458,496.17081 L -574.14372,496.17081"
         style="fill:#221e1f;fill-rule:nonzero;stroke:none"
         id="path32529" />
      <path
         d="M -574.14372,496.17081 L -574.90935,496.17081 L -570.05965,470.13558 L -570.05965,469.62522 L -549.1296,469.62522 L -548.87432,470.13558 C -547.59813,477.02731 -544.02462,480.09025 -537.89873,480.34553 C -533.30432,480.09025 -531.00701,478.81406 -530.49665,475.49583 L -529.98609,475.75111 L -530.49665,475.49583 L -530.49665,474.98527 C -530.49665,473.19852 -532.02812,471.1567 -535.60142,469.11466 C -536.36726,468.60411 -539.43021,467.32791 -544.2799,465.28588 C -558.31843,459.15999 -565.46524,451.50263 -565.46524,442.3138 C -565.46524,440.78232 -565.46524,439.50613 -565.20996,438.22994 C -563.93377,430.57257 -559.84991,424.44669 -553.46874,420.10734 C -547.59813,415.76821 -540.45112,413.72638 -532.53848,413.72638 C -524.62604,413.72638 -518.24487,415.76821 -513.65046,420.10734 L -513.90553,420.6179 L -514.67137,420.36262 L -513.65046,414.74729 L -492.46492,414.74729 L -492.46492,415.51293 L -496.54898,438.99557 L -517.47903,438.99557 L -517.73431,438.48522 L -517.98959,437.4641 C -519.26579,432.10405 -522.32873,429.55146 -528.19934,429.55146 C -532.53848,429.55146 -534.32523,431.08293 -535.09107,434.14587 L -535.09107,434.65643 C -535.09107,436.18791 -533.5596,437.97466 -529.98609,440.01669 L -530.24137,440.52704 L -529.98609,440.01669 C -526.92315,441.0376 -524.11548,442.3138 -521.05254,443.58999 L -521.05254,443.84527 C -513.90553,447.16349 -508.80076,450.22644 -505.73781,453.0341 C -501.1434,457.37324 -498.59081,462.7335 -498.59081,469.11466 C -498.59081,477.79294 -502.67487,485.19523 -510.58751,490.81056 C -517.22375,495.66025 -524.62604,497.95736 -533.04904,497.95736 C -540.96168,497.95736 -547.85341,495.91553 -553.72402,491.32112 L -553.21346,490.81056 L -552.7029,491.06584 L -553.46874,496.42589 L -553.72402,496.93645 L -574.90935,496.93645 L -574.90935,496.17081 L -574.14372,496.17081 L -574.14372,495.66025 L -554.23458,495.66025 L -554.23458,496.17081 L -554.74493,496.17081 L -553.9793,490.81056 L -553.72402,489.78964 L -552.95818,490.3 C -547.34285,494.38406 -540.7064,496.68117 -533.04904,496.68117 C -524.88112,496.68117 -517.73431,494.38406 -511.35314,489.78964 C -503.69578,484.17411 -499.867,477.28259 -499.867,469.11466 C -499.867,462.98877 -502.16431,458.13908 -506.50345,453.79994 C -509.56639,451.24735 -514.41609,448.18441 -521.5631,444.86639 L -521.30782,444.35583 L -521.5631,444.86639 C -524.62604,443.58999 -527.43371,442.3138 -530.49665,441.0376 L -530.49665,441.0376 L -530.49665,441.0376 C -534.06995,438.99557 -536.36726,436.95374 -536.36726,434.65643 L -536.11198,433.8908 L -535.60142,433.8908 L -536.11198,433.8908 C -535.60142,430.06202 -532.79376,428.27526 -528.19934,428.27526 C -522.07345,428.27526 -517.98959,431.33821 -516.7134,437.20882 L -516.45812,438.22994 L -516.96848,438.48522 L -516.96848,437.71938 L -497.05933,437.71938 L -497.05933,438.48522 L -497.82517,438.22994 L -493.74111,415.25785 L -493.23076,415.51293 L -493.23076,416.27876 L -513.1399,416.27876 L -513.1399,415.51293 L -512.37406,415.51293 L -513.39518,420.6179 L -513.65046,421.8941 L -514.41609,421.12846 C -519.01051,417.0444 -524.88112,415.00257 -532.53848,415.00257 C -540.45112,415.00257 -547.08757,417.0444 -552.95818,421.12846 C -558.82899,425.21232 -562.65757,431.08293 -563.93377,438.48522 C -564.18904,439.76141 -564.18904,441.0376 -564.18904,442.3138 C -564.44432,450.737 -557.5526,458.13908 -544.02462,464.00969 C -538.91965,466.05172 -535.8567,467.32791 -535.09107,467.83847 C -531.26229,470.13558 -529.22046,472.43289 -529.22046,474.98527 L -529.22046,475.75111 C -529.98609,479.57969 -533.04904,481.62172 -537.89873,481.62172 C -544.53518,481.62172 -548.87432,477.53786 -550.15051,470.39086 L -549.63995,470.13558 L -549.63995,470.90142 L -569.5493,470.90142 L -569.5493,470.13558 L -569.03874,470.39086 L -573.63316,496.42589 L -574.14372,496.17081 L -574.14372,495.66025 L -574.14372,496.17081"
         style="fill:#221e1f;fill-rule:nonzero;stroke:none"
         id="path32531" />
      <path
         d="M -395.72667,415.51293 L -401.59749,449.4608 L -418.44368,449.4608 L -415.89109,434.65643 L -426.10104,434.65643 L -433.50313,477.02731 L -425.59049,477.02731 L -428.90871,496.17081 L -478.93694,496.17081 L -475.61872,477.02731 L -467.70608,477.02731 L -460.304,434.65643 L -470.51374,434.65643 L -473.06633,449.4608 L -489.91253,449.4608 L -483.78664,415.51293 L -395.72667,415.51293"
         style="fill:#221e1f;fill-rule:nonzero;stroke:none"
         id="path32533" />
      <path
         d="M -395.72667,415.51293 L -394.96104,415.51293 L -401.08693,449.71588 L -401.08693,450.22644 L -419.20932,450.22644 L -419.20932,449.4608 L -416.65693,434.65643 L -415.89109,434.65643 L -415.89109,435.42227 L -426.10104,435.42227 L -426.10104,434.65643 L -425.33521,434.91171 L -432.73749,477.02731 L -433.50313,477.02731 L -433.50313,476.26147 L -424.82485,476.26147 L -424.82485,477.02731 L -428.39815,496.42589 L -428.39815,496.93645 L -479.70258,496.93645 L -479.70258,496.17081 L -476.12928,476.77203 L -476.12928,476.26147 L -467.70608,476.26147 L -467.70608,477.02731 L -468.21664,476.77203 L -461.06963,434.65643 L -460.304,434.65643 L -460.304,435.42227 L -470.51374,435.42227 L -470.51374,434.65643 L -469.74811,434.91171 L -472.55578,449.71588 L -472.55578,450.22644 L -490.67816,450.22644 L -490.42309,449.4608 L -484.55228,415.25785 L -484.297,414.74729 L -394.96104,414.74729 L -394.96104,415.51293 L -395.72667,415.51293 L -395.72667,416.27876 L -483.78664,416.27876 L -483.78664,415.51293 L -483.27608,415.51293 L -489.14669,449.71588 L -489.91253,449.4608 L -489.91253,448.95024 L -473.06633,448.95024 L -473.06633,449.4608 L -473.83197,449.4608 L -471.0243,434.65643 L -471.0243,434.14587 L -459.53816,434.14587 L -459.79344,434.91171 L -467.19552,477.02731 L -467.19552,477.53786 L -475.61872,477.53786 L -475.61872,477.02731 L -474.85309,477.02731 L -478.42639,496.42589 L -478.93694,496.17081 L -478.93694,495.66025 L -428.90871,495.66025 L -428.90871,496.17081 L -429.67455,496.17081 L -426.10104,476.77203 L -425.59049,477.02731 L -425.59049,477.53786 L -434.26897,477.53786 L -434.01369,476.77203 L -426.6116,434.65643 L -426.6116,434.14587 L -415.12546,434.14587 L -415.38074,434.91171 L -417.93312,449.71588 L -418.44368,449.4608 L -418.44368,448.95024 L -401.59749,448.95024 L -401.59749,449.4608 L -402.36312,449.4608 L -396.23723,415.25785 L -395.72667,415.51293 L -395.72667,416.27876 L -395.72667,415.51293"
         style="fill:#221e1f;fill-rule:nonzero;stroke:none"
         id="path32535" />
      <path
         d="M -401.34221,496.17081 L -398.02398,477.02731 L -391.13225,477.02731 L -383.47489,434.65643 L -390.6219,434.65643 L -387.0484,415.51293 L -333.70194,415.51293 L -326.04458,446.65293 L -307.15635,415.51293 L -254.06517,415.51293 L -257.63867,434.65643 L -264.5304,434.65643 L -271.93248,477.02731 L -264.78547,477.02731 L -268.35898,496.17081 L -314.30335,496.17081 L -310.72985,477.02731 L -303.83812,477.02731 L -296.18076,432.10405 L -296.43604,432.10405 L -333.95722,496.17081 L -347.23011,496.17081 L -362.03428,432.10405 L -362.28956,432.10405 L -370.2022,477.02731 L -363.56575,477.02731 L -366.88398,496.17081 L -401.34221,496.17081"
         style="fill:#221e1f;fill-rule:nonzero;stroke:none"
         id="path32537" />
      <path
         d="M -401.34221,496.17081 L -401.85256,496.17081 L -398.53454,476.77203 L -398.53454,476.26147 L -391.13225,476.26147 L -391.13225,477.02731 L -391.64281,476.77203 L -384.24073,434.65643 L -383.47489,434.65643 L -383.47489,435.42227 L -391.38753,435.42227 L -391.13225,434.65643 L -387.81403,415.25785 L -387.55896,414.74729 L -333.19158,414.74729 L -332.9363,415.25785 L -325.27894,446.65293 L -326.04458,446.65293 L -326.55513,446.39786 L -307.66691,415.00257 L -307.66691,414.74729 L -253.29953,414.74729 L -253.55481,415.51293 L -256.87304,434.91171 L -257.12811,435.42227 L -264.5304,435.42227 L -264.5304,434.65643 L -263.76456,434.91171 L -271.16664,477.02731 L -271.93248,477.02731 L -271.93248,476.26147 L -264.01984,476.26147 L -264.27512,477.02731 L -267.59334,496.42589 L -267.84862,496.93645 L -315.06899,496.93645 L -314.81371,496.17081 L -311.49549,476.77203 L -311.49549,476.26147 L -303.83812,476.26147 L -303.83812,477.02731 L -304.60396,476.77203 L -296.69132,431.84877 L -296.18076,432.10405 L -296.18076,432.6144 L -296.43604,432.6144 L -296.43604,432.10405 L -295.92548,432.35933 L -333.44666,496.42589 L -333.70194,496.93645 L -347.74047,496.93645 L -347.99575,496.42589 L -362.80012,432.10405 L -362.03428,432.10405 L -362.03428,432.6144 L -362.28956,432.6144 L -362.28956,432.10405 L -361.779,432.10405 L -369.69164,477.02731 L -370.2022,477.02731 L -370.2022,476.26147 L -362.80012,476.26147 L -362.80012,477.02731 L -366.11814,496.42589 L -366.11814,496.93645 L -402.10784,496.93645 L -401.85256,496.17081 L -401.34221,496.17081 L -401.34221,495.66025 L -366.88398,495.66025 L -366.88398,496.17081 L -367.39453,496.17081 L -364.07631,476.77203 L -363.56575,477.02731 L -363.56575,477.53786 L -370.96783,477.53786 L -370.96783,476.77203 L -363.05519,431.84877 L -362.80012,431.33821 L -362.03428,431.33821 L -361.52372,431.33821 L -361.52372,431.84877 L -346.71955,496.17081 L -347.23011,496.17081 L -347.23011,495.66025 L -333.95722,495.66025 L -333.95722,496.17081 L -334.46778,495.91553 L -296.9466,431.59349 L -296.69132,431.33821 L -295.41513,431.33821 L -295.41513,432.10405 L -303.32777,477.02731 L -303.32777,477.53786 L -310.72985,477.53786 L -310.72985,477.02731 L -310.21929,477.02731 L -313.7928,496.42589 L -314.30335,496.17081 L -314.30335,495.66025 L -268.35898,495.66025 L -268.35898,496.17081 L -268.86954,496.17081 L -265.55131,476.77203 L -264.78547,477.02731 L -264.78547,477.53786 L -272.69812,477.53786 L -272.44304,476.77203 L -265.04075,434.65643 L -265.04075,434.14587 L -257.63867,434.14587 L -257.63867,434.65643 L -258.14923,434.65643 L -254.57573,415.25785 L -254.06517,415.51293 L -254.06517,416.27876 L -307.15635,416.27876 L -307.15635,415.51293 L -306.64599,416.02348 L -325.53402,447.16349 L -326.29985,448.43968 L -326.55513,446.90821 L -334.2125,415.51293 L -333.70194,415.51293 L -333.70194,416.27876 L -387.0484,416.27876 L -387.0484,415.51293 L -386.53784,415.51293 L -389.85606,434.91171 L -390.6219,434.65643 L -390.6219,434.14587 L -382.70926,434.14587 L -382.96454,434.91171 L -390.36662,477.02731 L -390.36662,477.53786 L -398.02398,477.53786 L -398.02398,477.02731 L -397.25814,477.02731 L -400.83165,496.42589 L -401.34221,496.17081 L -401.34221,495.66025 L -401.34221,496.17081"
         style="fill:#221e1f;fill-rule:nonzero;stroke:none"
         id="path32539" />
      <path
         d="M -211.18394,435.93263 L -210.92866,435.93263 L -207.61044,458.13908 L -223.43572,458.13908 L -211.18394,435.93263 z M -230.8378,496.17081 L -227.51958,478.55878 L -234.92187,478.55878 L -229.05105,468.34883 L -206.33424,468.34883 L -204.80277,478.55878 L -212.46013,478.55878 L -216.03364,496.17081 L -169.57891,496.17081 L -166.0054,477.02731 L -172.38657,477.02731 L -181.32013,434.65643 L -174.17332,434.65643 L -170.34454,415.51293 L -234.15603,415.51293 L -237.98481,434.65643 L -230.8378,434.65643 L -255.59664,477.02731 L -262.23309,477.02731 L -266.06187,496.17081 L -230.8378,496.17081"
         style="fill:#221e1f;fill-rule:nonzero;stroke:none"
         id="path32541" />
      <path
         d="M -211.18394,435.93263 L -211.18394,435.16699 L -210.92866,435.16699 L -210.4181,435.42227 L -210.4181,435.93263 L -207.10008,458.13908 L -207.10008,458.90492 L -224.45663,458.90492 L -223.94628,457.8838 L -211.6945,435.67735 L -211.43922,435.16699 L -211.18394,435.16699 L -211.18394,435.93263 L -210.67338,436.18791 L -222.92516,458.39436 L -223.43572,458.13908 L -223.43572,457.62852 L -207.61044,457.62852 L -207.61044,458.13908 L -208.37628,458.13908 L -211.6945,435.93263 L -210.92866,435.93263 L -210.92866,436.44318 L -211.18394,436.44318 L -211.18394,435.93263 L -210.67338,436.18791 L -211.18394,435.93263 M -230.8378,496.17081 L -231.60364,496.17081 L -228.03014,478.3035 L -227.51958,478.55878 L -227.51958,479.06934 L -235.94278,479.06934 L -235.43222,478.04822 L -229.81689,468.09375 L -229.56161,467.83847 L -205.82369,467.83847 L -205.56861,468.34883 L -204.29221,478.3035 L -204.03714,479.06934 L -212.46013,479.06934 L -212.46013,478.55878 L -211.94957,478.55878 L -215.2678,496.42589 L -216.03364,496.17081 L -216.03364,495.66025 L -169.57891,495.66025 L -169.57891,496.17081 L -170.34454,496.17081 L -166.51596,476.77203 L -166.0054,477.02731 L -166.0054,477.53786 L -172.89713,477.53786 L -173.15221,477.02731 L -181.83069,434.91171 L -182.08597,434.14587 L -174.17332,434.14587 L -174.17332,434.65643 L -174.68368,434.65643 L -170.8551,415.25785 L -170.34454,415.51293 L -170.34454,416.27876 L -234.15603,416.27876 L -234.15603,415.51293 L -233.64547,415.51293 L -237.47425,434.91171 L -237.98481,434.65643 L -237.98481,434.14587 L -229.56161,434.14587 L -230.07217,435.16699 L -255.08629,477.28259 L -255.08629,477.53786 L -262.23309,477.53786 L -262.23309,477.02731 L -261.72253,477.02731 L -265.29603,496.42589 L -266.06187,496.17081 L -266.06187,495.66025 L -230.8378,495.66025 L -230.8378,496.17081 L -231.60364,496.17081 L -230.8378,496.17081 L -230.8378,496.93645 L -266.82751,496.93645 L -266.57223,496.17081 L -262.99893,476.77203 L -262.74365,476.26147 L -255.59664,476.26147 L -255.59664,477.02731 L -256.1072,476.51675 L -231.34836,434.40115 L -230.8378,434.65643 L -230.8378,435.42227 L -238.75044,435.42227 L -238.49516,434.65643 L -234.92187,415.25785 L -234.66659,414.74729 L -169.57891,414.74729 L -169.57891,415.51293 L -173.40749,434.91171 L -173.66276,435.42227 L -181.32013,435.42227 L -181.32013,434.65643 L -180.55449,434.65643 L -171.87601,476.77203 L -172.38657,477.02731 L -172.38657,476.26147 L -165.23956,476.26147 L -165.23956,477.02731 L -169.06835,496.42589 L -169.06835,496.93645 L -216.79927,496.93645 L -216.54399,496.17081 L -213.22597,478.3035 L -212.97069,477.79294 L -204.80277,477.79294 L -204.80277,478.55878 L -205.56861,478.55878 L -206.8448,468.60411 L -206.33424,468.34883 L -206.33424,469.11466 L -229.05105,469.11466 L -229.05105,468.34883 L -228.5407,468.60411 L -234.15603,478.81406 L -234.92187,478.55878 L -234.92187,477.79294 L -226.75394,477.79294 L -226.75394,478.55878 L -230.32745,496.93645 L -230.8378,496.93645 L -230.8378,496.17081"
         style="fill:#221e1f;fill-rule:nonzero;stroke:none"
         id="path32543" />
      <path
         d="M -165.23956,496.17081 L -160.64515,470.13558 L -140.73601,470.13558 C -139.20453,477.28259 -135.37595,480.85588 -128.99479,480.85588 C -124.14509,480.85588 -121.5925,479.06934 -121.08214,475.75111 C -120.57159,473.19852 -122.35834,470.90142 -126.4422,468.60411 C -127.20803,468.09375 -130.27098,466.81735 -135.12068,464.52025 C -149.15921,458.64964 -156.05073,451.24735 -156.05073,442.3138 C -156.05073,441.0376 -155.79565,439.50613 -155.54038,438.22994 C -154.26418,430.82785 -150.4354,424.70176 -144.30951,420.6179 C -138.4389,416.53404 -131.54717,414.23673 -123.63453,414.23673 C -115.97717,414.23673 -109.596,416.53404 -105.00158,420.6179 L -104.23595,415.51293 L -84.071527,415.51293 L -88.155385,438.48522 L -108.06453,438.48522 L -108.31981,437.4641 C -109.596,431.84877 -113.1695,429.0411 -119.29539,429.0411 C -123.63453,429.0411 -126.18712,430.57257 -126.69747,433.8908 C -126.95275,436.18791 -125.166,438.22994 -121.08214,440.52704 C -118.27448,441.80324 -115.21153,443.07963 -112.40366,444.35583 C -105.25686,447.67405 -100.15189,450.737 -97.08894,453.54466 C -92.749803,457.62852 -90.452696,462.7335 -90.452696,469.11466 C -90.452696,477.53786 -94.281275,484.68467 -102.19392,490.3 C -108.57509,494.89442 -115.97717,497.19173 -124.14509,497.19173 C -132.05773,497.19173 -138.69418,495.1497 -144.30951,490.81056 L -145.33042,496.17081 L -165.23956,496.17081"
         style="fill:#221e1f;fill-rule:nonzero;stroke:none"
         id="path32545" />
      <path
         d="M -165.23956,496.17081 L -165.75012,496.17081 L -161.15571,470.13558 L -161.15571,469.62522 L -140.22565,469.62522 L -139.97037,470.13558 C -138.69418,477.02731 -135.12068,480.09025 -128.99479,480.34553 C -124.40037,480.09025 -122.10306,478.81406 -121.5925,475.49583 L -121.08214,475.75111 L -121.5925,475.49583 L -121.5925,474.98527 C -121.5925,473.19852 -123.12418,471.1567 -126.69747,469.11466 C -127.46331,468.60411 -130.52626,467.32791 -135.37595,465.28588 C -149.41449,459.15999 -156.56129,451.50263 -156.56129,442.3138 C -156.56129,440.78232 -156.56129,439.50613 -156.30601,438.22994 C -155.02982,430.57257 -150.94596,424.44669 -144.56479,420.10734 L -144.56479,420.10734 C -138.69418,415.76821 -131.54717,413.72638 -123.63453,413.72638 C -115.72189,413.72638 -109.34072,415.76821 -104.7463,420.10734 L -105.00158,420.6179 L -105.76742,420.36262 L -104.7463,415.25785 L -104.7463,414.74729 L -83.305689,414.74729 L -83.560968,415.51293 L -87.644827,438.48522 L -87.644827,438.99557 L -108.57509,438.99557 L -108.83036,438.48522 L -109.08564,437.4641 C -110.36184,432.10405 -113.42478,429.55146 -119.29539,429.55146 C -123.63453,429.55146 -125.42128,431.08293 -125.93184,434.14587 L -126.18712,434.65643 C -126.18712,436.18791 -124.40037,437.97466 -120.82686,440.01669 L -121.08214,440.52704 L -120.82686,440.01669 C -118.0192,441.0376 -114.95625,442.3138 -112.14859,443.58999 L -112.14859,443.84527 C -105.00158,447.16349 -99.896606,450.22644 -96.833661,453.0341 C -91.984169,457.37324 -89.686858,462.7335 -89.686858,469.11466 C -89.686858,477.79294 -93.770716,485.19523 -101.68336,490.81056 C -108.31981,495.66025 -115.72189,497.95736 -124.14509,497.95736 C -132.05773,497.95736 -138.94925,495.91553 -144.82007,491.32112 L -144.30951,490.81056 L -143.79895,491.06584 L -144.56479,496.42589 L -144.82007,496.93645 L -166.0054,496.93645 L -165.75012,496.17081 L -165.23956,496.17081 L -165.23956,495.66025 L -145.33042,495.66025 L -145.33042,496.17081 L -145.84098,496.17081 L -144.82007,490.81056 L -144.82007,489.78964 L -144.05423,490.3 C -138.4389,494.38406 -131.80245,496.68117 -124.14509,496.68117 C -115.97717,496.68117 -108.83036,494.38406 -102.4492,489.78964 C -94.791834,484.17411 -90.963051,477.28259 -90.963051,469.11466 C -90.963051,462.98877 -93.260362,458.13908 -97.599499,453.79994 C -100.66244,451.24735 -105.51214,448.18441 -112.65894,444.86639 L -112.40366,444.35583 L -112.65894,444.86639 C -115.46661,443.58999 -118.52955,442.3138 -121.5925,441.0376 L -121.5925,441.0376 L -121.5925,441.0376 C -125.166,438.99557 -127.20803,436.95374 -127.46331,434.65643 L -127.20803,433.8908 L -126.69747,433.8908 L -127.20803,433.8908 C -126.69747,430.06202 -123.88981,428.27526 -119.29539,428.27526 C -113.1695,428.27526 -109.08564,431.33821 -107.80925,437.20882 L -107.55417,438.22994 L -108.06453,438.48522 L -108.06453,437.71938 L -88.155385,437.71938 L -88.155385,438.48522 L -88.92102,438.22994 L -84.837161,415.25785 L -84.071527,415.51293 L -84.071527,416.27876 L -104.23595,416.27876 L -104.23595,415.51293 L -103.47011,415.51293 L -104.49102,420.6179 L -104.49102,421.8941 L -105.51214,421.12846 C -109.85128,417.0444 -115.97717,415.00257 -123.63453,415.00257 C -131.29189,415.00257 -138.18362,417.0444 -143.79895,421.12846 C -149.92484,425.21232 -153.75362,431.08293 -155.02982,438.48522 C -155.2851,439.76141 -155.2851,441.0376 -155.2851,442.3138 C -155.2851,450.737 -148.64865,458.13908 -134.8654,464.00969 C -130.0157,466.05172 -126.95275,467.32791 -126.18712,467.83847 C -122.35834,470.13558 -120.31631,472.43289 -120.31631,474.98527 L -120.31631,475.75111 L -120.31631,475.75111 C -121.08214,479.57969 -124.14509,481.62172 -128.99479,481.62172 C -135.63103,481.62172 -139.97037,477.53786 -141.24656,470.39086 L -140.73601,470.13558 L -140.73601,470.90142 L -160.64515,470.90142 L -160.64515,470.13558 L -159.87951,470.39086 L -164.72921,496.42589 L -165.23956,496.17081 L -165.23956,495.66025 L -165.23956,496.17081"
         style="fill:#221e1f;fill-rule:nonzero;stroke:none"
         id="path32547" />
      <path
         d="M 13.432556,415.51293 L 7.3066667,449.4608 L -9.5395298,449.4608 L -6.9871438,434.65643 L -17.197096,434.65643 L -24.343899,477.02731 L -16.686537,477.02731 L -20.004761,496.17081 L -70.032996,496.17081 L -66.714772,477.02731 L -58.80213,477.02731 L -51.400048,434.65643 L -61.354516,434.65643 L -64.162182,449.4608 L -81.008582,449.4608 L -74.882693,415.51293 L 13.432556,415.51293"
         style="fill:#221e1f;fill-rule:nonzero;stroke:none"
         id="path32549" />
      <path
         d="M 13.432556,415.51293 L 13.942911,415.51293 L 7.8170213,449.71588 L 7.8170213,450.22644 L -10.305368,450.22644 L -10.305368,449.4608 L -7.4977027,434.65643 L -6.9871438,434.65643 L -6.9871438,435.42227 L -17.197096,435.42227 L -17.197096,434.65643 L -16.431258,434.91171 L -23.83334,477.02731 L -24.343899,477.02731 L -24.343899,476.26147 L -15.920699,476.26147 L -15.920699,477.02731 L -19.494202,496.42589 L -19.494202,496.93645 L -70.79863,496.93645 L -70.79863,496.17081 L -67.225126,476.77203 L -67.225126,476.26147 L -58.80213,476.26147 L -58.80213,477.02731 L -59.312689,476.77203 L -52.165682,434.65643 L -51.400048,434.65643 L -51.400048,435.42227 L -61.354516,435.42227 L -61.354516,434.65643 L -60.844162,434.91171 L -63.651827,449.71588 L -63.651827,450.22644 L -81.518937,450.22644 L -81.518937,449.4608 L -75.393047,414.74729 L 14.19819,414.74729 L 13.942911,415.51293 L 13.432556,415.51293 L 13.432556,416.27876 L -74.882693,416.27876 L -74.882693,415.51293 L -74.372134,415.51293 L -80.242744,449.71588 L -81.008582,449.4608 L -81.008582,448.95024 L -64.162182,448.95024 L -64.162182,449.4608 L -64.92802,449.4608 L -62.120355,434.65643 L -61.865075,434.14587 L -50.634209,434.14587 L -50.889489,434.91171 L -58.036292,477.02731 L -58.291571,477.53786 L -66.714772,477.53786 L -66.714772,477.02731 L -65.948933,477.02731 L -69.522437,496.42589 L -70.032996,496.17081 L -70.032996,495.66025 L -20.004761,495.66025 L -20.004761,496.17081 L -20.770395,496.17081 L -17.197096,476.77203 L -16.686537,477.02731 L -16.686537,477.53786 L -25.109533,477.53786 L -25.109533,476.77203 L -17.707451,434.65643 L -17.707451,434.14587 L -6.2215097,434.14587 L -6.2215097,434.91171 L -9.0291751,449.71588 L -9.5395298,449.4608 L -9.5395298,448.95024 L 7.3066667,448.95024 L 7.3066667,449.4608 L 6.5408284,449.4608 L 12.666718,415.25785 L 13.432556,415.51293 L 13.432556,416.27876 L 13.432556,415.51293"
         style="fill:#221e1f;fill-rule:nonzero;stroke:none"
         id="path32551" />
      <path
         d="M 5.5199148,496.17081 L 8.8381391,477.02731 L 15.984942,477.02731 L 23.13195,434.65643 L 16.240222,434.65643 L 19.558446,415.51293 L 104.29999,415.51293 L 99.70557,441.29288 L 76.478204,441.29288 L 77.754397,434.65643 L 57.589977,434.65643 L 55.54815,447.16349 L 72.904905,447.16349 L 70.097035,463.75441 L 52.485205,463.75441 L 50.187894,477.02731 L 70.097035,477.02731 L 71.373432,470.39086 L 94.600798,470.39086 L 90.261456,496.17081 L 5.5199148,496.17081"
         style="fill:#221e1f;fill-rule:nonzero;stroke:none"
         id="path32553" />
      <path
         d="M 5.5199148,496.17081 L 5.009356,496.17081 L 8.3275802,476.26147 L 15.984942,476.26147 L 15.984942,477.02731 L 15.219308,476.77203 L 22.621391,434.65643 L 23.13195,434.65643 L 23.13195,435.42227 L 15.474383,435.42227 L 15.729663,434.65643 L 19.047887,415.25785 L 19.047887,414.74729 L 105.06583,414.74729 L 105.06583,415.51293 L 100.47141,441.29288 L 100.47141,442.05852 L 75.71257,442.05852 L 75.96785,441.0376 L 77.244043,434.65643 L 77.754397,434.65643 L 77.754397,435.42227 L 57.589977,435.42227 L 57.589977,434.65643 L 58.100535,434.91171 L 56.058504,447.41877 L 55.54815,447.16349 L 55.54815,446.65293 L 73.670539,446.65293 L 73.415259,447.41877 L 70.607594,463.75441 L 70.607594,464.26497 L 52.485205,464.26497 L 52.485205,463.75441 L 53.250839,463.75441 L 50.953732,477.02731 L 50.187894,477.02731 L 50.187894,476.26147 L 70.097035,476.26147 L 70.097035,477.02731 L 69.586681,476.77203 L 70.862874,470.39086 L 70.862874,469.62522 L 95.366432,469.62522 L 95.366432,470.39086 L 90.772015,496.42589 L 90.772015,496.93645 L 4.7540765,496.93645 L 5.009356,496.17081 L 5.5199148,496.17081 L 5.5199148,495.66025 L 90.261456,495.66025 L 90.261456,496.17081 L 89.495822,496.17081 L 94.090239,470.39086 L 94.600798,470.39086 L 94.600798,470.90142 L 71.373432,470.90142 L 71.373432,470.39086 L 72.139066,470.64614 L 70.862874,477.02731 L 70.607594,477.53786 L 49.42226,477.53786 L 49.677335,476.77203 L 51.974646,463.49933 L 51.974646,462.98877 L 70.097035,462.98877 L 70.097035,463.75441 L 69.331401,463.49933 L 72.139066,447.16349 L 72.904905,447.16349 L 72.904905,447.92933 L 54.782311,447.92933 L 54.782311,447.16349 L 57.079622,434.65643 L 57.079622,434.14587 L 78.520236,434.14587 L 78.520236,434.91171 L 77.244043,441.29288 L 76.478204,441.29288 L 76.478204,440.52704 L 99.70557,440.52704 L 99.70557,441.29288 L 99.195215,441.29288 L 103.78963,415.25785 L 104.29999,415.51293 L 104.29999,416.27876 L 19.558446,416.27876 L 19.558446,415.51293 L 20.32408,415.51293 L 17.005856,434.91171 L 16.240222,434.65643 L 16.240222,434.14587 L 23.897584,434.14587 L 23.897584,434.91171 L 16.495501,477.02731 L 16.495501,477.53786 L 8.8381391,477.53786 L 8.8381391,477.02731 L 9.6037732,477.02731 L 6.2855489,496.42589 L 5.5199148,496.17081 L 5.5199148,495.66025 L 5.5199148,496.17081"
         style="fill:#221e1f;fill-rule:nonzero;stroke:none"
         id="path32555" />
      <path
         d="M 150.75492,433.12496 L 160.45411,433.12496 C 166.83528,433.12496 169.89823,435.42227 169.89823,439.50613 C 169.89823,442.56907 168.62203,444.86639 165.81437,446.39786 C 163.51706,447.92933 160.96467,448.43968 157.64645,448.43968 L 147.94705,448.43968 L 150.75492,433.12496 z M 146.1603,496.17081 L 149.7338,477.02731 L 143.09736,477.02731 L 145.39467,463.24405 L 156.11497,463.24405 L 169.89823,496.17081 L 201.80407,496.17081 L 205.37737,477.02731 L 198.74113,477.02731 L 189.80737,458.39436 C 194.65706,456.60761 198.48585,453.79994 201.54879,449.71588 C 204.86702,445.37674 206.39849,440.78232 206.39849,435.93263 C 206.39849,431.33821 204.86702,427.25435 201.80407,423.93613 C 198.23057,420.10734 191.8494,417.29968 182.91584,416.27876 C 178.83178,415.76821 171.68498,415.51293 161.47523,415.51293 L 112.21263,415.51293 L 108.8944,434.65643 L 116.04141,434.65643 L 108.63933,477.02731 L 101.49232,477.02731 L 97.918818,496.17081 L 146.1603,496.17081"
         style="fill:#221e1f;fill-rule:nonzero;stroke:none"
         id="path32557" />
      <path
         d="M 150.75492,433.12496 L 150.75492,432.6144 L 160.45411,432.6144 C 163.77234,432.6144 166.06965,433.12496 167.8564,434.14587 C 169.64295,435.42227 170.40878,437.20882 170.40878,439.50613 C 170.40878,442.82435 169.13259,445.37674 166.06965,447.16349 L 165.81437,446.39786 L 166.32493,447.16349 C 163.77234,448.43968 160.96467,449.20552 157.64645,449.20552 L 147.18142,449.20552 L 147.4367,448.43968 L 149.98908,433.12496 L 150.24436,432.6144 L 150.75492,432.6144 L 150.75492,433.12496 L 151.26528,433.38024 L 148.71289,448.69496 L 147.94705,448.43968 L 147.94705,447.92933 L 157.64645,447.92933 C 160.70939,447.92933 163.51706,447.16349 165.55909,445.8873 C 168.11147,444.35583 169.13259,442.3138 169.13259,439.50613 C 169.13259,435.67735 166.58,433.8908 160.45411,433.8908 L 150.75492,433.8908 L 150.75492,433.12496 L 151.26528,433.38024 L 150.75492,433.12496 M 146.1603,496.17081 L 145.64995,496.17081 L 148.96817,476.77203 L 149.7338,477.02731 L 149.7338,477.53786 L 142.33172,477.53786 L 142.33172,476.77203 L 144.88411,463.24405 L 144.88411,462.7335 L 156.62553,462.7335 L 156.88081,462.98877 L 170.40878,495.91553 L 169.89823,496.17081 L 169.89823,495.66025 L 201.80407,495.66025 L 201.80407,496.17081 L 201.29351,496.17081 L 204.61174,476.77203 L 205.37737,477.02731 L 205.37737,477.53786 L 198.48585,477.53786 L 198.23057,477.28259 L 189.29701,458.64964 L 189.04173,458.13908 L 189.55229,457.8838 C 194.14671,456.09705 197.97529,453.28938 201.03823,449.20552 C 204.10118,445.12146 205.63265,440.78232 205.63265,435.93263 C 205.63265,431.33821 204.10118,427.50963 201.29351,424.44669 C 197.97529,420.6179 191.59412,418.06552 182.66056,417.0444 L 182.91584,416.27876 L 182.66056,417.0444 C 178.83178,416.53404 171.68498,416.27876 161.47523,416.27876 L 112.21263,416.27876 L 112.21263,415.51293 L 112.97847,415.51293 L 109.40496,434.91171 L 108.8944,434.65643 L 108.8944,434.14587 L 116.80705,434.14587 L 116.80705,434.91171 L 109.40496,477.02731 L 109.14968,477.53786 L 101.49232,477.53786 L 101.49232,477.02731 L 102.00288,477.02731 L 98.684656,496.42589 L 97.918818,496.17081 L 97.918818,495.66025 L 146.1603,495.66025 L 146.1603,496.17081 L 145.64995,496.17081 L 146.1603,496.17081 L 146.1603,496.93645 L 97.153184,496.93645 L 97.408463,496.17081 L 100.98176,476.77203 L 100.98176,476.26147 L 108.63933,476.26147 L 108.63933,477.02731 L 108.12877,476.77203 L 115.53085,434.65643 L 116.04141,434.65643 L 116.04141,435.42227 L 108.12877,435.42227 L 108.12877,434.65643 L 111.70227,415.25785 L 111.70227,414.74729 L 161.47523,414.74729 C 171.68498,414.74729 178.83178,415.00257 182.91584,415.51293 C 191.8494,416.78932 198.48585,419.59699 202.31443,423.68085 C 205.37737,426.99907 206.90884,431.08293 206.90884,435.93263 C 206.90884,441.0376 205.37737,445.63202 202.05935,449.97116 L 202.05935,449.97116 C 198.9964,454.31029 194.91234,457.37324 190.06265,459.15999 L 189.80737,458.39436 L 190.31793,458.13908 L 199.50676,476.51675 L 198.74113,477.02731 L 198.74113,476.26147 L 206.14321,476.26147 L 205.88793,477.02731 L 202.31443,496.42589 L 202.31443,496.93645 L 169.38787,496.93645 L 169.13259,496.42589 L 155.60441,463.49933 L 156.11497,463.24405 L 156.11497,464.00969 L 145.39467,464.00969 L 145.39467,463.24405 L 146.1603,463.49933 L 143.60791,477.02731 L 143.09736,477.02731 L 143.09736,476.26147 L 150.49964,476.26147 L 150.24436,477.02731 L 146.92614,496.42589 L 146.67086,496.93645 L 146.1603,496.93645 L 146.1603,496.17081"
         style="fill:#221e1f;fill-rule:nonzero;stroke:none"
         id="path32559" />
      <path
         d="M 220.43702,423.68085 L 222.9894,423.68085 C 225.03144,423.68085 225.79707,424.44669 225.79707,425.4676 C 225.79707,426.74379 225.03144,427.50963 223.24468,427.50963 L 220.43702,427.50963 L 220.43702,423.68085 M 227.8391,432.35933 L 226.81819,430.3173 L 225.03144,429.29638 L 227.58382,428.01998 L 228.60474,425.4676 C 228.60474,424.19141 228.34966,423.17029 227.58382,422.65993 C 226.81819,422.14937 225.79707,421.8941 224.52088,421.8941 L 217.88443,421.8941 L 217.88443,434.91171 L 220.43702,434.91171 L 220.43702,429.55146 L 221.45793,429.55146 C 222.73413,429.55146 224.01032,430.57257 225.03144,432.86968 L 226.05235,434.91171 L 229.62585,434.91171 L 227.8391,432.35933 M 214.82148,437.20882 C 217.11879,439.50613 220.18174,440.78232 223.49996,440.78232 C 227.07326,440.78232 229.88113,439.50613 232.43352,437.20882 C 234.73083,434.65643 236.00702,431.84877 236.00702,428.27526 C 236.00702,424.95704 234.73083,422.14937 232.43352,419.59699 C 229.88113,417.29968 227.07326,416.02348 223.49996,416.02348 C 219.92646,416.02348 217.11879,417.29968 214.56641,419.59699 C 212.2691,422.14937 210.9929,424.95704 210.9929,428.27526 C 210.9929,431.84877 212.2691,434.65643 214.82148,437.20882 M 216.35296,421.38374 C 218.39499,419.34171 220.6923,418.3208 223.49996,418.3208 C 226.30763,418.3208 228.60474,419.34171 230.64677,421.38374 C 232.6888,423.17029 233.70971,425.4676 233.70971,428.27526 C 233.70971,431.08293 232.6888,433.63552 230.64677,435.42227 C 228.60474,437.4641 226.30763,438.48522 223.49996,438.48522 C 220.6923,438.48522 218.39499,437.4641 216.35296,435.42227 C 214.31113,433.63552 213.54529,431.08293 213.54529,428.27526 C 213.54529,425.4676 214.31113,423.17029 216.35296,421.38374"
         style="fill:#221e1f;fill-rule:nonzero;stroke:none"
         id="path32561" />
      <path
         d="M 220.43702,423.68085 L 220.43702,423.17029 L 222.9894,423.17029 L 225.54179,423.68085 L 226.30763,425.4676 L 225.54179,427.50963 L 223.24468,428.01998 L 219.92646,428.01998 L 219.92646,423.17029 L 220.43702,423.17029 L 220.43702,423.68085 L 221.20265,423.68085 L 221.20265,427.50963 L 220.43702,427.50963 L 220.43702,426.74379 L 223.24468,426.74379 C 224.77616,426.74379 225.28672,426.48851 225.28672,425.4676 C 225.28672,424.70176 224.77616,424.44669 222.9894,424.44669 L 220.43702,424.44669 L 220.43702,423.68085 L 221.20265,423.68085 L 220.43702,423.68085 M 227.8391,432.35933 L 227.32854,432.6144 L 226.30763,430.82785 L 226.81819,430.3173 L 226.30763,431.08293 L 224.77616,429.80674 L 224.52088,429.55146 L 224.52088,428.78582 L 224.77616,428.78582 L 227.32854,427.25435 L 227.58382,428.01998 L 227.07326,427.76491 L 228.09438,425.21232 L 228.60474,425.4676 L 228.09438,425.4676 L 227.07326,423.17029 L 224.52088,422.40465 L 217.88443,422.40465 L 217.88443,421.8941 L 218.39499,421.8941 L 218.39499,434.91171 L 217.88443,434.91171 L 217.88443,434.40115 L 220.43702,434.40115 L 220.43702,434.91171 L 219.92646,434.91171 L 219.92646,429.0411 L 221.45793,429.0411 C 222.9894,429.0411 224.2656,430.3173 225.54179,432.6144 L 226.56291,434.65643 L 226.05235,434.91171 L 226.05235,434.40115 L 229.62585,434.40115 L 229.62585,434.91171 L 228.86001,435.42227 L 227.32854,432.6144 L 227.8391,432.35933 L 227.32854,432.6144 L 227.8391,432.35933 L 228.60474,432.10405 L 229.88113,434.65643 L 230.64677,435.67735 L 225.79707,435.67735 L 225.54179,435.16699 L 224.52088,433.12496 C 223.24468,431.08293 222.22377,430.06202 221.45793,430.06202 L 220.43702,430.06202 L 220.43702,429.55146 L 221.20265,429.55146 L 221.20265,435.67735 L 217.37407,435.67735 L 217.37407,421.12846 L 224.52088,421.12846 C 225.79707,421.12846 227.07326,421.38374 227.8391,422.14937 C 228.86001,422.91521 229.37057,424.19141 229.37057,425.4676 L 229.37057,425.4676 L 228.34966,428.27526 L 228.09438,428.53054 L 227.8391,428.78582 L 225.28672,429.80674 L 225.03144,429.29638 L 225.79707,429.29638 L 225.03144,429.29638 L 225.54179,428.78582 L 227.07326,430.06202 L 227.32854,430.06202 L 227.32854,430.06202 L 228.60474,431.84877 L 228.60474,432.10405 L 227.8391,432.35933 M 214.82148,437.20882 L 215.07676,436.69846 C 217.37407,438.99557 220.18174,440.27176 223.49996,440.27176 C 226.81819,440.27176 229.62585,438.99557 231.92296,436.69846 C 234.22027,434.40115 235.49646,431.59349 235.49646,428.27526 C 235.49646,424.95704 234.22027,422.40465 231.92296,420.10734 C 229.62585,417.55496 226.81819,416.53404 223.49996,416.53404 C 220.18174,416.53404 217.37407,417.55496 215.07676,420.10734 C 212.77966,422.40465 211.75854,424.95704 211.75854,428.27526 C 211.75854,431.59349 212.77966,434.40115 215.07676,436.69846 L 214.82148,437.20882 L 214.31113,437.71938 C 211.75854,435.16699 210.48235,432.10405 210.48235,428.27526 C 210.48235,424.70176 211.75854,421.63882 214.31113,419.08643 C 216.86351,416.53404 219.92646,415.00257 223.49996,415.00257 C 227.07326,415.00257 230.39149,416.53404 232.94408,419.08643 C 235.49646,421.63882 236.51738,424.70176 236.51738,428.27526 C 236.51738,432.10405 235.49646,435.16699 232.94408,437.71938 C 230.39149,440.27176 227.07326,441.54816 223.49996,441.54816 C 219.92646,441.54816 216.86351,440.27176 214.31113,437.71938 L 214.82148,437.20882 M 216.35296,421.38374 L 215.8426,420.87318 C 217.88443,418.83115 220.43702,417.55496 223.49996,417.55496 C 226.56291,417.55496 229.11529,418.83115 231.15733,420.87318 C 233.19936,422.91521 234.22027,425.4676 234.22027,428.27526 C 234.22027,431.33821 233.19936,433.8908 231.15733,435.93263 C 229.11529,437.97466 226.30763,438.99557 223.49996,438.99557 C 220.43702,438.99557 218.13971,437.97466 216.09788,435.93263 C 213.80057,433.8908 212.77966,431.33821 212.77966,428.27526 C 212.77966,425.4676 213.80057,422.91521 215.8426,420.87318 L 216.35296,421.38374 L 216.86351,421.8941 C 215.07676,423.68085 214.05585,425.72288 214.05585,428.27526 C 214.05585,431.08293 215.07676,433.12496 216.86351,434.91171 C 218.65027,436.95374 220.94737,437.71938 223.49996,437.71938 C 226.30763,437.71938 228.34966,436.95374 230.13641,434.91171 C 232.17824,433.12496 232.94408,431.08293 232.94408,428.27526 C 232.94408,425.72288 232.17824,423.68085 230.13641,421.8941 C 228.34966,419.85227 226.30763,419.08643 223.49996,419.08643 C 220.6923,419.08643 218.65027,419.85227 216.86351,421.8941 L 216.35296,421.38374"
         style="fill:#221e1f;fill-rule:nonzero;stroke:none"
         id="path32563" />
    </g>
  </g>
</svg>
