<?xml version="1.0" encoding="UTF-8"?>
<svg xmlns="http://www.w3.org/2000/svg" xmlns:xlink="http://www.w3.org/1999/xlink" width="876.14pt" height="353.72pt" viewBox="0 0 876.14 353.72" version="1.1">
<defs>
<clipPath id="clip1">
  <path d="M 611 276 L 660 276 L 660 353.71875 L 611 353.71875 Z M 611 276 "/>
</clipPath>
<clipPath id="clip2">
  <path d="M 825 276 L 876.140625 276 L 876.140625 353 L 825 353 Z M 825 276 "/>
</clipPath>
</defs>
<g id="surface1">
<path style=" stroke:none;fill-rule:nonzero;fill:rgb(100%,10.598755%,0.39978%);fill-opacity:1;" d="M 439.613281 239.484375 C 374.414063 239.484375 321.371094 186.441406 321.371094 121.242188 C 321.371094 56.046875 374.414063 3.003906 439.613281 3.003906 C 504.808594 3.003906 557.851563 56.046875 557.851563 121.242188 C 557.851563 186.441406 504.808594 239.484375 439.613281 239.484375 "/>
<path style=" stroke:none;fill-rule:nonzero;fill:rgb(100%,100%,100%);fill-opacity:1;" d="M 439.613281 0.00390625 C 407.226563 0.00390625 376.78125 12.613281 353.882813 35.511719 C 330.980469 58.410156 318.371094 88.859375 318.371094 121.242188 C 318.371094 153.628906 330.980469 184.074219 353.882813 206.972656 C 376.78125 229.871094 407.226563 242.484375 439.613281 242.484375 C 471.996094 242.484375 502.441406 229.871094 525.339844 206.972656 C 548.242188 184.074219 560.851563 153.628906 560.851563 121.242188 C 560.851563 88.859375 548.242188 58.410156 525.339844 35.511719 C 502.441406 12.613281 471.996094 0.00390625 439.613281 0.00390625 M 439.613281 6.003906 C 503.257813 6.003906 554.851563 57.597656 554.851563 121.242188 C 554.851563 184.886719 503.257813 236.484375 439.613281 236.484375 C 375.964844 236.484375 324.371094 184.886719 324.371094 121.242188 C 324.371094 57.597656 375.964844 6.003906 439.613281 6.003906 "/>
<path style="fill:none;stroke-width:60;stroke-linecap:butt;stroke-linejoin:miter;stroke:rgb(100%,100%,100%);stroke-opacity:1;stroke-miterlimit:10;" d="M 4732.890625 2053.528125 C 4293.085938 1581.965625 3809.6875 1230.79375 3597.148438 1443.29375 C 3442.265625 1598.215625 3712.929688 2123.098437 4152.734375 2594.621875 C 4592.578125 3066.184375 5023.007813 3394.114062 5239.179688 3177.942187 C 5394.101563 3023.020312 5172.734375 2525.090625 4732.890625 2053.528125 Z M 4732.890625 2053.528125 " transform="matrix(0.1,0,0,-0.1,0,353.72)"/>
<path style="fill:none;stroke-width:60;stroke-linecap:butt;stroke-linejoin:miter;stroke:rgb(100%,100%,100%);stroke-opacity:1;stroke-miterlimit:10;" d="M 5016.914063 1788.645312 C 4577.109375 1317.082812 4028.007813 1027.160937 3597.148438 1443.29375 C 3283.085938 1746.653125 3420.273438 2396.067187 3860.078125 2867.590625 C 4299.882813 3339.153125 4796.5625 3605.285937 5234.84375 3181.965625 C 5548.90625 2878.60625 5456.757813 2260.207812 5016.914063 1788.645312 Z M 5016.914063 1788.645312 " transform="matrix(0.1,0,0,-0.1,0,353.72)"/>
<path style="fill:none;stroke-width:60;stroke-linecap:butt;stroke-linejoin:miter;stroke:rgb(100%,100%,100%);stroke-opacity:1;stroke-miterlimit:10;" d="M 4696.640625 2600.559375 C 4265.351563 3079.934375 3792.890625 3377.160937 3576.5625 3168.489062 C 3418.90625 3016.379687 3675.585938 2549.348437 4106.875 2069.934375 C 4538.164063 1590.598437 4949.335938 1224.192187 5169.335938 1436.457812 C 5326.992188 1588.567187 5127.929688 2121.184375 4696.640625 2600.559375 Z M 4696.640625 2600.559375 " transform="matrix(0.1,0,0,-0.1,0,353.72)"/>
<path style="fill:none;stroke-width:60;stroke-linecap:butt;stroke-linejoin:miter;stroke:rgb(100%,100%,100%);stroke-opacity:1;stroke-miterlimit:10;" d="M 4985.390625 2860.325 C 4554.0625 3339.7 4054.726563 3607.66875 3616.445313 3199.270312 C 3296.992188 2901.614062 3378.085938 2281.653125 3809.375 1802.278125 C 4240.664063 1322.903125 4732.460938 1047.903125 5178.28125 1463.29375 C 5497.734375 1760.989062 5416.640625 2380.95 4985.390625 2860.325 Z M 4985.390625 2860.325 " transform="matrix(0.1,0,0,-0.1,0,353.72)"/>
<path style=" stroke:none;fill-rule:nonzero;fill:rgb(17.999268%,24.699402%,28.599548%);fill-opacity:1;" d="M 24.890625 322.839844 L 26.207031 330.886719 C 23.640625 331.421875 21.347656 331.691406 19.324219 331.691406 C 16.019531 331.691406 13.457031 331.171875 11.632813 330.125 C 9.8125 329.078125 8.53125 327.703125 7.789063 326 C 7.046875 324.300781 6.675781 320.714844 6.675781 315.253906 L 6.675781 284.339844 L 0 284.339844 L 0 277.257813 L 6.675781 277.257813 L 6.675781 263.953125 L 15.734375 258.488281 L 15.734375 277.257813 L 24.890625 277.257813 L 24.890625 284.339844 L 15.734375 284.339844 L 15.734375 315.757813 C 15.734375 318.355469 15.894531 320.023438 16.214844 320.765625 C 16.535156 321.507813 17.054688 322.097656 17.78125 322.535156 C 18.507813 322.976563 19.542969 323.195313 20.894531 323.195313 C 21.90625 323.195313 23.238281 323.078125 24.890625 322.839844 "/>
<path style=" stroke:none;fill-rule:nonzero;fill:rgb(17.999268%,24.699402%,28.599548%);fill-opacity:1;" d="M 35.867188 330.984375 L 35.867188 256.820313 L 45.476563 256.820313 L 45.476563 283.429688 C 49.964844 278.507813 55.625 276.042969 62.460938 276.042969 C 66.660156 276.042969 70.308594 276.828125 73.40625 278.398438 C 76.503906 279.964844 78.71875 282.132813 80.054688 284.898438 C 81.386719 287.664063 82.058594 291.675781 82.058594 296.9375 L 82.058594 330.984375 L 72.445313 330.984375 L 72.445313 296.9375 C 72.445313 292.382813 71.402344 289.070313 69.320313 286.996094 C 67.238281 284.921875 64.289063 283.886719 60.484375 283.886719 C 57.632813 283.886719 54.957031 284.585938 52.445313 285.984375 C 49.9375 287.386719 48.148438 289.28125 47.082031 291.675781 C 46.011719 294.070313 45.476563 297.375 45.476563 301.59375 L 45.476563 330.984375 "/>
<path style=" stroke:none;fill-rule:nonzero;fill:rgb(17.999268%,24.699402%,28.599548%);fill-opacity:1;" d="M 103.027344 298.960938 L 134.808594 298.960938 C 134.382813 294.441406 133.167969 291.054688 131.164063 288.792969 C 128.09375 285.285156 124.109375 283.53125 119.214844 283.53125 C 114.785156 283.53125 111.058594 284.933594 108.039063 287.730469 C 105.019531 290.53125 103.351563 294.273438 103.027344 298.960938 M 134.703125 313.683594 L 144.671875 314.847656 C 143.097656 320.34375 140.1875 324.609375 135.9375 327.648438 C 131.683594 330.679688 126.253906 332.199219 119.644531 332.199219 C 111.316406 332.199219 104.71875 329.78125 99.839844 324.941406 C 94.964844 320.101563 92.523438 313.3125 92.523438 304.578125 C 92.523438 295.539063 94.988281 288.523438 99.921875 283.53125 C 104.851563 278.539063 111.246094 276.042969 119.105469 276.042969 C 126.71875 276.042969 132.933594 278.488281 137.757813 283.378906 C 142.582031 288.269531 144.992188 295.152344 144.992188 304.019531 C 144.992188 304.558594 144.976563 305.371094 144.941406 306.449219 L 102.492188 306.449219 C 102.851563 312.351563 104.617188 316.871094 107.800781 320.007813 C 110.980469 323.144531 114.945313 324.710938 119.695313 324.710938 C 123.234375 324.710938 126.253906 323.835938 128.753906 322.082031 C 131.253906 320.328125 133.238281 317.527344 134.703125 313.683594 "/>
<path style=" stroke:none;fill-rule:nonzero;fill:rgb(17.999268%,24.699402%,28.599548%);fill-opacity:1;" d="M 185.476563 330.984375 L 167.09375 277.257813 L 177.613281 277.257813 L 187.171875 308.269531 L 190.734375 319.804688 C 190.886719 319.230469 191.921875 315.539063 193.84375 308.726563 L 203.402344 277.257813 L 213.867188 277.257813 L 222.859375 308.421875 L 225.859375 318.691406 L 229.308594 308.320313 L 239.601563 277.257813 L 249.5 277.257813 L 230.722656 330.984375 L 220.144531 330.984375 L 210.585938 298.808594 L 208.269531 289.652344 L 196.109375 330.984375 "/>
<path style=" stroke:none;fill-rule:nonzero;fill:rgb(17.999268%,24.699402%,28.599548%);fill-opacity:1;" d="M 291.6875 303.917969 C 288.382813 305.269531 283.425781 306.417969 276.816406 307.359375 C 273.070313 307.898438 270.421875 308.507813 268.871094 309.179688 C 267.320313 309.855469 266.121094 310.839844 265.28125 312.140625 C 264.4375 313.4375 264.015625 314.882813 264.015625 316.464844 C 264.015625 318.894531 264.933594 320.917969 266.773438 322.535156 C 268.609375 324.15625 271.300781 324.964844 274.84375 324.964844 C 278.347656 324.964844 281.46875 324.199219 284.199219 322.664063 C 286.933594 321.128906 288.941406 319.027344 290.222656 316.363281 C 291.199219 314.308594 291.6875 311.269531 291.6875 307.257813 Z M 292.449219 324.257813 C 289.074219 327.125 285.828125 329.148438 282.710938 330.328125 C 279.589844 331.507813 276.242188 332.097656 272.667969 332.097656 C 266.765625 332.097656 262.226563 330.65625 259.058594 327.773438 C 255.886719 324.890625 254.304688 321.207031 254.304688 316.71875 C 254.304688 314.085938 254.902344 311.683594 256.097656 309.507813 C 257.296875 307.335938 258.863281 305.589844 260.804688 304.273438 C 262.742188 302.957031 264.925781 301.964844 267.355469 301.289063 C 269.140625 300.816406 271.839844 300.359375 275.449219 299.921875 C 282.800781 299.046875 288.214844 298 291.6875 296.785156 C 291.722656 295.539063 291.738281 294.746094 291.738281 294.410156 C 291.738281 290.699219 290.878906 288.085938 289.160156 286.566406 C 286.832031 284.507813 283.375 283.480469 278.789063 283.480469 C 274.503906 283.480469 271.34375 284.230469 269.304688 285.730469 C 267.261719 287.230469 265.753906 289.890625 264.773438 293.699219 L 255.871094 292.484375 C 256.679688 288.675781 258.011719 285.597656 259.867188 283.253906 C 261.722656 280.910156 264.402344 279.105469 267.910156 277.839844 C 271.417969 276.574219 275.480469 275.941406 280.101563 275.941406 C 284.6875 275.941406 288.417969 276.480469 291.285156 277.5625 C 294.148438 278.640625 296.257813 279.996094 297.605469 281.632813 C 298.957031 283.269531 299.898438 285.335938 300.441406 287.832031 C 300.742188 289.382813 300.894531 292.183594 300.894531 296.230469 L 300.894531 308.371094 C 300.894531 316.835938 301.089844 322.191406 301.476563 324.433594 C 301.863281 326.675781 302.632813 328.828125 303.78125 330.882813 L 294.269531 330.882813 C 293.324219 328.996094 292.71875 326.785156 292.449219 324.257813 "/>
<path style=" stroke:none;fill-rule:nonzero;fill:rgb(17.999268%,24.699402%,28.599548%);fill-opacity:1;" d="M 311.679688 330.984375 L 311.679688 277.257813 L 319.875 277.257813 L 319.875 285.402344 C 321.964844 281.59375 323.898438 279.082031 325.667969 277.867188 C 327.4375 276.648438 329.386719 276.042969 331.511719 276.042969 C 334.578125 276.042969 337.699219 277.023438 340.871094 278.976563 L 337.734375 287.425781 C 335.507813 286.113281 333.28125 285.457031 331.054688 285.457031 C 329.0625 285.457031 327.277344 286.054688 325.691406 287.25 C 324.105469 288.445313 322.976563 290.109375 322.304688 292.234375 C 321.289063 295.472656 320.785156 299.011719 320.785156 302.855469 L 320.785156 330.984375 "/>
<path style=" stroke:none;fill-rule:nonzero;fill:rgb(17.999268%,24.699402%,28.599548%);fill-opacity:1;" d="M 349.125 330.984375 L 349.125 277.257813 L 357.320313 277.257813 L 357.320313 285.402344 C 359.410156 281.59375 361.34375 279.082031 363.113281 277.867188 C 364.886719 276.648438 366.832031 276.042969 368.957031 276.042969 C 372.027344 276.042969 375.144531 277.023438 378.316406 278.976563 L 375.179688 287.425781 C 372.953125 286.113281 370.730469 285.457031 368.503906 285.457031 C 366.511719 285.457031 364.726563 286.054688 363.140625 287.25 C 361.554688 288.445313 360.425781 290.109375 359.75 292.234375 C 358.738281 295.472656 358.234375 299.011719 358.234375 302.855469 L 358.234375 330.984375 "/>
<path style=" stroke:none;fill-rule:nonzero;fill:rgb(17.999268%,24.699402%,28.599548%);fill-opacity:1;" d="M 418.746094 303.414063 C 415.4375 304.761719 410.480469 305.910156 403.871094 306.855469 C 400.128906 307.394531 397.480469 308 395.929688 308.671875 C 394.378906 309.347656 393.179688 310.335938 392.335938 311.632813 C 391.492188 312.933594 391.070313 314.375 391.070313 315.957031 C 391.070313 318.390625 391.988281 320.414063 393.828125 322.03125 C 395.664063 323.648438 398.355469 324.460938 401.898438 324.460938 C 405.402344 324.460938 408.523438 323.691406 411.257813 322.15625 C 413.988281 320.625 415.996094 318.523438 417.277344 315.859375 C 418.253906 313.804688 418.746094 310.765625 418.746094 306.753906 Z M 419.503906 323.75 C 416.128906 326.617188 412.882813 328.640625 409.765625 329.820313 C 406.644531 331 403.296875 331.59375 399.722656 331.59375 C 393.820313 331.59375 389.28125 330.152344 386.113281 327.265625 C 382.941406 324.382813 381.359375 320.699219 381.359375 316.210938 C 381.359375 313.582031 381.957031 311.179688 383.152344 309.003906 C 384.351563 306.828125 385.921875 305.082031 387.859375 303.769531 C 389.796875 302.453125 391.980469 301.457031 394.410156 300.78125 C 396.195313 300.3125 398.894531 299.855469 402.503906 299.417969 C 409.855469 298.539063 415.269531 297.496094 418.746094 296.28125 C 418.777344 295.03125 418.796875 294.242188 418.796875 293.902344 C 418.796875 290.195313 417.933594 287.578125 416.214844 286.0625 C 413.886719 284.003906 410.429688 282.976563 405.84375 282.976563 C 401.5625 282.976563 398.398438 283.726563 396.359375 285.226563 C 394.316406 286.726563 392.808594 289.382813 391.828125 293.195313 L 382.925781 291.980469 C 383.734375 288.167969 385.066406 285.09375 386.921875 282.746094 C 388.777344 280.40625 391.457031 278.601563 394.964844 277.332031 C 398.472656 276.070313 402.539063 275.4375 407.15625 275.4375 C 411.746094 275.4375 415.472656 275.976563 418.339844 277.058594 C 421.203125 278.136719 423.3125 279.492188 424.664063 281.128906 C 426.011719 282.765625 426.953125 284.828125 427.496094 287.324219 C 427.800781 288.875 427.953125 291.675781 427.953125 295.722656 L 427.953125 307.867188 C 427.953125 316.332031 428.144531 321.683594 428.53125 323.925781 C 428.921875 326.171875 429.6875 328.320313 430.835938 330.378906 L 421.324219 330.378906 C 420.378906 328.488281 419.773438 326.28125 419.503906 323.75 "/>
<path style=" stroke:none;fill-rule:nonzero;fill:rgb(17.999268%,24.699402%,28.599548%);fill-opacity:1;" d="M 438.664063 330.984375 L 438.664063 277.257813 L 446.859375 277.257813 L 446.859375 284.898438 C 450.808594 278.996094 456.507813 276.042969 463.960938 276.042969 C 467.199219 276.042969 470.175781 276.625 472.890625 277.789063 C 475.605469 278.953125 477.636719 280.480469 478.984375 282.367188 C 480.335938 284.257813 481.277344 286.5 481.820313 289.097656 C 482.15625 290.78125 482.324219 293.734375 482.324219 297.949219 L 482.324219 330.984375 L 473.21875 330.984375 L 473.21875 298.304688 C 473.21875 294.59375 472.863281 291.820313 472.15625 289.980469 C 471.449219 288.144531 470.191406 286.675781 468.386719 285.582031 C 466.582031 284.484375 464.464844 283.933594 462.039063 283.933594 C 458.160156 283.933594 454.8125 285.167969 451.996094 287.628906 C 449.179688 290.089844 447.769531 294.761719 447.769531 301.640625 L 447.769531 330.984375 "/>
<path style=" stroke:none;fill-rule:nonzero;fill:rgb(17.999268%,24.699402%,28.599548%);fill-opacity:1;" d="M 523.273438 323.195313 L 526.472656 330.375 C 523.90625 330.914063 518.804688 330.984375 516.78125 330.984375 C 513.476563 330.984375 510.527344 331.167969 508.703125 330.125 C 506.882813 329.078125 505.601563 327.707031 504.859375 326 C 504.117188 324.296875 503.746094 320.714844 503.746094 315.25 L 503.746094 284.339844 L 497.070313 284.339844 L 497.070313 277.257813 L 503.746094 277.257813 L 503.746094 263.953125 L 512.804688 258.488281 L 512.804688 277.257813 L 521.960938 277.257813 L 521.960938 284.339844 L 512.804688 284.339844 L 512.804688 315.757813 C 512.804688 318.355469 512.964844 320.023438 513.28125 320.765625 C 513.605469 321.507813 514.125 322.097656 514.851563 322.535156 C 515.574219 322.976563 516.613281 323.195313 517.964844 323.195313 C 518.972656 323.195313 521.621094 323.429688 523.273438 323.195313 "/>
<path style=" stroke:none;fill-rule:nonzero;fill:rgb(17.999268%,24.699402%,28.599548%);fill-opacity:1;" d="M 539.988281 351.679688 L 538.976563 343.128906 C 540.96875 343.667969 542.703125 343.9375 544.1875 343.9375 C 546.210938 343.9375 547.832031 343.601563 549.042969 342.925781 C 550.257813 342.25 551.253906 341.304688 552.03125 340.09375 C 552.601563 339.183594 553.53125 336.921875 554.8125 333.3125 C 554.980469 332.808594 555.25 332.066406 555.621094 331.085938 L 535.234375 277.257813 L 545.046875 277.257813 L 556.230469 308.371094 C 557.679688 312.320313 558.976563 316.46875 560.125 320.816406 C 561.167969 316.636719 562.417969 312.554688 563.867188 308.574219 L 575.351563 277.257813 L 584.457031 277.257813 L 564.019531 331.898438 C 561.828125 337.800781 560.125 341.863281 558.910156 344.089844 C 557.289063 347.09375 555.4375 349.292969 553.34375 350.691406 C 551.253906 352.089844 548.757813 352.792969 545.855469 352.792969 C 544.105469 352.792969 542.148438 352.421875 539.988281 351.679688 "/>
<g clip-path="url(#clip1)" clip-rule="nonzero">
<path style=" stroke:none;fill-rule:nonzero;fill:rgb(17.999268%,24.699402%,28.599548%);fill-opacity:1;" d="M 621.367188 303.675781 C 621.367188 310.78125 622.78125 315.96875 625.601563 319.234375 C 628.425781 322.5 631.964844 324.132813 636.214844 324.132813 C 640.429688 324.132813 643.96875 322.507813 646.824219 319.257813 C 649.683594 316.011719 651.109375 310.917969 651.109375 303.980469 C 651.109375 297.347656 649.640625 292.351563 646.699219 288.980469 C 643.757813 285.613281 640.210938 283.929688 636.0625 283.929688 C 631.980469 283.929688 628.511719 285.589844 625.65625 288.90625 C 622.796875 292.222656 621.367188 297.144531 621.367188 303.675781 M 613.769531 336.222656 L 622.695313 337.546875 C 623.070313 340.304688 624.105469 342.308594 625.808594 343.566406 C 628.085938 345.265625 631.199219 346.121094 635.144531 346.121094 C 639.394531 346.121094 642.675781 345.265625 644.988281 343.566406 C 647.300781 341.867188 648.867188 339.488281 649.683594 336.425781 C 650.15625 334.554688 650.378906 330.628906 650.347656 324.640625 C 646.332031 329.367188 641.332031 331.734375 635.347656 331.734375 C 627.898438 331.734375 622.136719 329.046875 618.054688 323.671875 C 613.972656 318.296875 611.933594 311.855469 611.933594 304.335938 C 611.933594 299.167969 612.867188 294.398438 614.738281 290.027344 C 616.605469 285.65625 619.320313 282.28125 622.875 279.902344 C 626.429688 277.519531 630.601563 276.332031 635.398438 276.332031 C 641.792969 276.332031 647.0625 278.914063 651.214844 284.085938 L 651.214844 277.554688 L 659.683594 277.554688 L 659.683594 324.386719 C 659.683594 332.820313 658.824219 338.796875 657.105469 342.316406 C 655.386719 345.839844 652.667969 348.617188 648.941406 350.660156 C 645.21875 352.699219 640.636719 353.71875 635.195313 353.71875 C 628.730469 353.71875 623.511719 352.265625 619.53125 349.359375 C 615.554688 346.449219 613.632813 342.070313 613.769531 336.222656 "/>
</g>
<path style=" stroke:none;fill-rule:nonzero;fill:rgb(17.999268%,24.699402%,28.599548%);fill-opacity:1;" d="M 672.523438 331.734375 L 672.523438 277.554688 L 680.789063 277.554688 L 680.789063 285.769531 C 682.898438 281.925781 684.84375 279.390625 686.628906 278.167969 C 688.414063 276.941406 690.378906 276.332031 692.523438 276.332031 C 695.617188 276.332031 698.761719 277.316406 701.960938 279.289063 L 698.796875 287.808594 C 696.550781 286.480469 694.308594 285.820313 692.0625 285.820313 C 690.054688 285.820313 688.253906 286.421875 686.65625 287.628906 C 685.054688 288.835938 683.917969 290.511719 683.238281 292.65625 C 682.21875 295.921875 681.707031 299.492188 681.707031 303.367188 L 681.707031 331.734375 "/>
<path style=" stroke:none;fill-rule:nonzero;fill:rgb(17.999268%,24.699402%,28.599548%);fill-opacity:1;" d="M 714.691406 304.667969 C 714.691406 311.605469 716.203125 316.800781 719.230469 320.253906 C 722.257813 323.707031 726.066406 325.433594 730.660156 325.433594 C 735.214844 325.433594 739.007813 323.695313 742.035156 320.230469 C 745.0625 316.761719 746.574219 311.472656 746.574219 304.363281 C 746.574219 297.660156 745.054688 292.589844 742.007813 289.136719 C 738.964844 285.683594 735.179688 283.957031 730.660156 283.957031 C 726.066406 283.957031 722.257813 285.675781 719.230469 289.109375 C 716.203125 292.546875 714.691406 297.730469 714.691406 304.667969 M 705.253906 304.667969 C 705.253906 294.636719 708.039063 287.203125 713.621094 282.375 C 718.277344 278.363281 723.957031 276.355469 730.660156 276.355469 C 738.105469 276.355469 744.195313 278.796875 748.921875 283.675781 C 753.648438 288.558594 756.011719 295.300781 756.011719 303.902344 C 756.011719 310.875 754.96875 316.359375 752.875 320.355469 C 750.785156 324.351563 747.738281 327.453125 743.742188 329.664063 C 739.746094 331.875 735.386719 332.980469 730.660156 332.980469 C 723.074219 332.980469 716.945313 330.550781 712.265625 325.6875 C 707.589844 320.824219 705.253906 313.816406 705.253906 304.667969 "/>
<path style=" stroke:none;fill-rule:nonzero;fill:rgb(17.999268%,24.699402%,28.599548%);fill-opacity:1;" d="M 804.351563 331.734375 L 804.351563 323.773438 C 799.984375 329.894531 794.054688 332.957031 786.550781 332.957031 C 783.242188 332.957031 780.152344 332.347656 777.28125 331.121094 C 774.410156 329.894531 772.28125 328.359375 770.890625 326.503906 C 769.496094 324.652344 768.519531 322.378906 767.957031 319.691406 C 767.570313 317.890625 767.375 315.035156 767.375 311.121094 L 767.375 277.554688 L 776.886719 277.554688 L 776.886719 307.601563 C 776.886719 312.398438 777.078125 315.628906 777.464844 317.296875 C 778.0625 319.710938 779.332031 321.605469 781.269531 322.984375 C 783.207031 324.363281 785.601563 325.050781 788.453125 325.050781 C 791.304688 325.050781 793.980469 324.347656 796.480469 322.933594 C 798.980469 321.523438 800.753906 319.601563 801.789063 317.167969 C 802.828125 314.738281 803.347656 311.207031 803.347656 306.582031 L 803.347656 277.554688 L 812.859375 277.554688 L 812.859375 331.734375 "/>
<g clip-path="url(#clip2)" clip-rule="nonzero">
<path style=" stroke:none;fill-rule:nonzero;fill:rgb(17.999268%,24.699402%,28.599548%);fill-opacity:1;" d="M 834.84375 304.949219 C 834.84375 311.921875 836.347656 317.074219 839.359375 320.40625 C 842.371094 323.738281 846.015625 325.40625 850.292969 325.40625 C 854.648438 325.40625 858.375 323.683594 861.476563 320.230469 C 864.578125 316.777344 866.125 311.429688 866.125 304.183594 C 866.125 297.28125 864.613281 292.109375 861.585938 288.675781 C 858.554688 285.242188 854.9375 283.523438 850.730469 283.523438 C 846.558594 283.523438 842.867188 285.351563 839.660156 289.007813 C 836.449219 292.664063 834.84375 297.980469 834.84375 304.949219 M 825.976563 352.496094 L 825.976563 277.554688 L 834.898438 277.554688 L 834.898438 284.59375 C 837 281.839844 839.378906 279.773438 842.023438 278.398438 C 844.671875 277.019531 847.882813 276.332031 851.65625 276.332031 C 856.585938 276.332031 860.941406 277.519531 864.710938 279.902344 C 868.484375 282.28125 871.332031 285.640625 873.253906 289.976563 C 875.175781 294.3125 876.136719 299.066406 876.136719 304.234375 C 876.136719 309.777344 875.074219 314.769531 872.953125 319.207031 C 870.832031 323.644531 867.75 327.046875 863.703125 329.410156 C 859.660156 331.773438 855.410156 332.957031 850.949219 332.957031 C 847.683594 332.957031 844.753906 332.3125 842.160156 331.019531 C 839.566406 329.726563 837.4375 328.09375 835.769531 326.121094 L 835.769531 352.496094 "/>
</g>
<path style=" stroke:none;fill-rule:nonzero;fill:rgb(17.999268%,24.699402%,28.599548%);fill-opacity:1;" d="M 493.117188 284.339844 L 527.070313 284.339844 L 527.070313 277.257813 L 493.117188 277.257813 Z M 493.117188 284.339844 "/>
<path style=" stroke:none;fill-rule:nonzero;fill:rgb(17.999268%,24.699402%,28.599548%);fill-opacity:1;" d="M 510.949219 330.984375 L 527.070313 330.984375 L 527.070313 323.195313 L 510.949219 323.195313 Z M 510.949219 330.984375 "/>
</g>
</svg>
