<?xml version="1.0" encoding="UTF-8" standalone="no"?>
<!-- Created with Inkscape (http://www.inkscape.org/) -->

<svg
   xmlns:dc="http://purl.org/dc/elements/1.1/"
   xmlns:cc="http://creativecommons.org/ns#"
   xmlns:rdf="http://www.w3.org/1999/02/22-rdf-syntax-ns#"
   xmlns:svg="http://www.w3.org/2000/svg"
   xmlns="http://www.w3.org/2000/svg"
   xmlns:sodipodi="http://sodipodi.sourceforge.net/DTD/sodipodi-0.dtd"
   xmlns:inkscape="http://www.inkscape.org/namespaces/inkscape"
   version="1.0"
   width="670.53998"
   height="113.21"
   id="svg7148"
   inkscape:version="0.48.4 r9939"
   sodipodi:docname="Commodore_logo.svg">
  <metadata
     id="metadata25">
    <rdf:RDF>
      <cc:Work
         rdf:about="">
        <dc:format>image/svg+xml</dc:format>
        <dc:type
           rdf:resource="http://purl.org/dc/dcmitype/StillImage" />
      </cc:Work>
    </rdf:RDF>
  </metadata>
  <sodipodi:namedview
     pagecolor="#ffffff"
     bordercolor="#666666"
     borderopacity="1"
     objecttolerance="10"
     gridtolerance="10"
     guidetolerance="10"
     inkscape:pageopacity="0"
     inkscape:pageshadow="2"
     inkscape:window-width="1920"
     inkscape:window-height="1058"
     id="namedview23"
     showgrid="false"
     inkscape:zoom="1.1900857"
     inkscape:cx="309.96316"
     inkscape:cy="-20.699664"
     inkscape:window-x="-6"
     inkscape:window-y="-6"
     inkscape:window-maximized="1"
     inkscape:current-layer="svg7148" />
  <defs
     id="defs7150" />
  <path
     style="color:#000000;fill:#002255;fill-opacity:1;fill-rule:nonzero;stroke:none;stroke-width:3;marker:none;visibility:visible;display:inline;overflow:visible;enable-background:accumulate"
     d="M 58.375 4.59375 C 29.32068 4.59375 5.75 28.16443 5.75 57.21875 C 5.75 86.27307 29.32068 109.8125 58.375 109.8125 C 63.962369 109.8125 69.354977 108.92539 74.40625 107.3125 L 74.40625 81.0625 C 70.044153 83.598731 64.939325 85.0625 59.46875 85.0625 C 43.481011 85.0625 30.53125 72.597395 30.53125 57.21875 C 30.53125 41.840105 43.481011 29.375 59.46875 29.375 C 64.939325 29.375 70.044153 30.838769 74.40625 33.375 L 74.40625 7.09375 C 69.354977 5.478991 63.962369 4.59375 58.375 4.59375 z "
     id="path3002" />
  <polygon
     points="179.959,78.103 179.959,78.103 298.459,78.103 245.459,134.853 179.959,134.853 "
     transform="matrix(0.330752,0,0,0.321694,15.34867,12.07971)"
     style="fill:#002255"
     id="polygon9367" />
  <polygon
     points="179.959,203.103 179.959,203.103 298.459,203.103 245.459,146.353 179.959,146.353 "
     transform="matrix(0.330752,0,0,0.321694,15.34867,12.07971)"
     style="fill:#ff0000"
     id="polygon9369" />
  <path
     inkscape:connector-curvature="0"
     id="path3067"
     style="font-size:87.37689209px;font-style:normal;font-weight:normal;line-height:125%;letter-spacing:-1.24000001px;word-spacing:0px;fill:#002255;fill-opacity:1;stroke:none;font-family:Frutiger LT Std 55 Roman;-inkscape-font-specification:Frutiger LT Std 55 Roman"
     d="m 203.84627,89.055246 c 7.67811,-0.05097 13.96916,-2.133425 18.87317,-6.247369 4.90391,-4.113933 7.4378,-9.953541 7.60169,-17.51884 -0.16388,-7.607123 -2.69778,-13.472216 -7.60169,-17.595297 -4.90401,-4.123 -11.19506,-6.209094 -18.87317,-6.258287 -7.67816,0.0492 -13.96921,2.135292 -18.87316,6.258291 -4.90398,4.12308 -7.43787,9.988172 -7.6017,17.595293 0.16383,7.565301 2.69773,13.404909 7.6017,17.51884 4.90395,4.113942 11.19499,6.196397 18.87316,6.247369 z m 0,-11.009347 c -3.59881,-0.111031 -6.20916,-1.396182 -7.83105,-3.855457 -1.62194,-2.459248 -2.41924,-5.42638 -2.39191,-8.901405 -0.0273,-3.516849 0.76997,-6.509466 2.39191,-8.977861 1.62189,-2.468332 4.23224,-3.757123 7.83105,-3.866376 3.59876,0.109255 6.20911,1.398046 7.83105,3.866377 1.62188,2.468394 2.41918,5.461011 2.39192,8.97786 0.0273,3.475027 -0.77004,6.442159 -2.39192,8.901406 -1.62194,2.459274 -4.23229,3.744425 -7.83105,3.855456 z" />
  <path
     inkscape:connector-curvature="0"
     id="path3069"
     style="font-size:87.37689209px;font-style:normal;font-weight:normal;line-height:125%;letter-spacing:-1.24000001px;word-spacing:0px;fill:#002255;fill-opacity:1;stroke:none;font-family:Frutiger LT Std 55 Roman;-inkscape-font-specification:Frutiger LT Std 55 Roman"
     d="m 236.68084,88.006737 15.72764,0 0,-19.222669 c 0.0218,-4.874815 0.8082,-8.471781 2.35914,-10.790909 1.5509,-2.319067 3.73529,-3.469513 6.55319,-3.451341 2.21166,0.05282 3.81719,0.908376 4.81658,2.566662 0.99933,1.658349 1.49082,3.802694 1.47447,6.433042 l 0,24.465215 15.72764,0 0,-19.222669 c 0.0218,-4.874815 0.80817,-8.471781 2.35914,-10.790909 1.55087,-2.319067 3.73526,-3.469513 6.55319,-3.451341 2.21163,0.05282 3.81716,0.908376 4.81659,2.566662 0.99929,1.658349 1.49078,3.802694 1.47446,6.433042 l 0,24.465215 15.72764,0 0,-26.824361 c 0.14918,-6.212748 -0.89204,-11.043895 -3.12368,-14.493456 -2.2318,-3.449478 -6.54962,-5.200632 -12.95346,-5.253467 -3.27302,-0.01816 -6.3166,0.673569 -9.13077,2.075176 -2.81428,1.401695 -5.15886,3.622494 -7.03375,6.662401 -1.25972,-2.963455 -3.13101,-5.16241 -5.61389,-6.596872 -2.48297,-1.434374 -5.35909,-2.147941 -8.62836,-2.140705 -3.62977,-0.01634 -6.89907,0.737279 -9.80793,2.260848 -2.90891,1.523659 -5.1734,3.915568 -6.79346,7.175735 l -0.17476,0 0,-8.388074 -14.32962,0 z" />
  <path
     inkscape:connector-curvature="0"
     id="path3071"
     style="font-size:87.37689209px;font-style:normal;font-weight:normal;line-height:125%;letter-spacing:-1.24000001px;word-spacing:0px;fill:#002255;fill-opacity:1;stroke:none;font-family:Frutiger LT Std 55 Roman;-inkscape-font-specification:Frutiger LT Std 55 Roman"
     d="m 322.81773,88.006737 15.72763,0 0,-19.222669 c 0.0218,-4.874815 0.80821,-8.471781 2.35915,-10.790909 1.55089,-2.319067 3.73529,-3.469513 6.55318,-3.451341 2.21167,0.05282 3.8172,0.908376 4.81659,2.566662 0.99933,1.658349 1.49081,3.802694 1.47447,6.433042 l 0,24.465215 15.72764,0 0,-19.222669 c 0.0218,-4.874815 0.80817,-8.471781 2.35914,-10.790909 1.55086,-2.319067 3.73526,-3.469513 6.55318,-3.451341 2.21164,0.05282 3.81717,0.908376 4.81659,2.566662 0.9993,1.658349 1.49078,3.802694 1.47447,6.433042 l 0,24.465215 15.72764,0 0,-26.824361 c 0.14918,-6.212748 -0.89205,-11.043895 -3.12369,-14.493456 -2.2318,-3.449478 -6.54961,-5.200632 -12.95345,-5.253467 -3.27302,-0.01816 -6.31661,0.673569 -9.13077,2.075176 -2.81429,1.401695 -5.15887,3.622494 -7.03375,6.662401 -1.25972,-2.963455 -3.13102,-5.16241 -5.6139,-6.596872 -2.48297,-1.434374 -5.35908,-2.147941 -8.62835,-2.140705 -3.62977,-0.01634 -6.89908,0.737279 -9.80793,2.260848 -2.90891,1.523659 -5.1734,3.915568 -6.79347,7.175735 l -0.17475,0 0,-8.388074 -14.32962,0 z" />
  <path
     inkscape:connector-curvature="0"
     id="path3073"
     style="font-size:87.37689209px;font-style:normal;font-weight:normal;line-height:125%;letter-spacing:-1.24000001px;word-spacing:0px;fill:#002255;fill-opacity:1;stroke:none;font-family:Frutiger LT Std 55 Roman;-inkscape-font-specification:Frutiger LT Std 55 Roman"
     d="m 433.24509,89.055246 c 7.67811,-0.05097 13.96916,-2.133425 18.87317,-6.247369 4.90391,-4.113933 7.4378,-9.953541 7.60169,-17.51884 -0.16389,-7.607123 -2.69778,-13.472216 -7.60169,-17.595297 -4.90401,-4.123 -11.19506,-6.209094 -18.87317,-6.258287 -7.67817,0.0492 -13.96921,2.135292 -18.87317,6.258291 -4.90397,4.12308 -7.43786,9.988172 -7.60169,17.595293 0.16383,7.565301 2.69773,13.404909 7.60169,17.51884 4.90395,4.113942 11.195,6.196397 18.87317,6.247369 z m 0,-11.009347 c -3.59882,-0.111031 -6.20917,-1.396182 -7.83105,-3.855457 -1.62194,-2.459248 -2.41924,-5.42638 -2.39191,-8.901405 -0.0273,-3.516849 0.76997,-6.509466 2.39191,-8.977861 1.62189,-2.468332 4.23224,-3.757123 7.83105,-3.866376 3.59876,0.109255 6.20911,1.398046 7.83105,3.866377 1.62187,2.468394 2.41918,5.461011 2.39192,8.97786 0.0273,3.475027 -0.77004,6.442159 -2.39192,8.901406 -1.62194,2.459274 -4.23229,3.744425 -7.83105,3.855456 z" />
  <path
     inkscape:connector-curvature="0"
     id="path3075"
     style="font-size:87.37689209px;font-style:normal;font-weight:normal;line-height:125%;letter-spacing:-1.24000001px;word-spacing:0px;fill:#002255;fill-opacity:1;stroke:none;font-family:Frutiger LT Std 55 Roman;-inkscape-font-specification:Frutiger LT Std 55 Roman"
     d="m 515.01007,22.474911 -15.81501,0 0,25.863227 -0.17475,0 c -2.01696,-2.581182 -4.3397,-4.386946 -6.96822,-5.417297 -2.62858,-1.030261 -5.51926,-1.52539 -8.67205,-1.485388 -6.31655,0.258533 -11.13678,2.690489 -14.46069,7.295875 -3.32392,4.605465 -4.99862,9.833443 -5.0241,15.683952 0.02,6.913623 1.79302,12.702262 5.319,17.365933 3.52596,4.663684 8.68477,7.088359 15.47643,7.274033 3.69888,-0.06553 6.96091,-0.961133 9.78609,-2.686805 2.82511,-1.725668 4.7765,-3.888216 5.85417,-6.487651 l 0.17475,0 0,8.125947 14.50438,0 z m -34.86293,42.289872 c 0.0146,-3.107276 0.83733,-5.739469 2.46837,-7.896587 1.63099,-2.157056 3.98285,-3.282017 7.05559,-3.374887 2.92342,0.06375 5.24615,1.181427 6.96822,3.353044 1.72199,2.17168 2.60303,5.01503 2.64311,8.53006 -0.0728,3.389472 -1.01942,6.156369 -2.83971,8.300698 -1.82036,2.144358 -4.07757,3.251117 -6.77162,3.320279 -2.99628,-0.05642 -5.3263,-1.188661 -6.99006,-3.396732 -1.6638,-2.208042 -2.50843,-5.153331 -2.5339,-8.835875 z" />
  <path
     inkscape:connector-curvature="0"
     id="path3077"
     style="font-size:87.37689209px;font-style:normal;font-weight:normal;line-height:125%;letter-spacing:-1.24000001px;word-spacing:0px;fill:#002255;fill-opacity:1;stroke:none;font-family:Frutiger LT Std 55 Roman;-inkscape-font-specification:Frutiger LT Std 55 Roman"
     d="m 547.49517,89.055246 c 7.67811,-0.05097 13.96916,-2.133425 18.87316,-6.247369 4.90391,-4.113933 7.43781,-9.953541 7.60169,-17.51884 -0.16388,-7.607123 -2.69777,-13.472216 -7.60169,-17.595297 -4.90401,-4.123 -11.19506,-6.209094 -18.87316,-6.258287 -7.67817,0.0492 -13.96922,2.135292 -18.87317,6.258291 -4.90397,4.12308 -7.43786,9.988172 -7.60169,17.595293 0.16383,7.565301 2.69772,13.404909 7.60169,17.51884 4.90395,4.113942 11.195,6.196397 18.87317,6.247369 z m 0,-11.009347 c -3.59882,-0.111031 -6.20917,-1.396182 -7.83106,-3.855457 -1.62193,-2.459248 -2.41923,-5.42638 -2.39191,-8.901405 -0.0273,-3.516849 0.76998,-6.509466 2.39191,-8.977861 1.62189,-2.468332 4.23224,-3.757123 7.83106,-3.866376 3.59875,0.109255 6.2091,1.398046 7.83105,3.866377 1.62187,2.468394 2.41917,5.461011 2.39191,8.97786 0.0273,3.475027 -0.77004,6.442159 -2.39191,8.901406 -1.62195,2.459274 -4.2323,3.744425 -7.83105,3.855456 z" />
  <path
     inkscape:connector-curvature="0"
     id="path3079"
     style="font-size:87.37689209px;font-style:normal;font-weight:normal;line-height:125%;letter-spacing:-1.24000001px;word-spacing:0px;fill:#002255;fill-opacity:1;stroke:none;font-family:Frutiger LT Std 55 Roman;-inkscape-font-specification:Frutiger LT Std 55 Roman"
     d="m 613.6199,41.959707 c -0.79552,-0.136478 -1.65107,-0.256619 -2.56666,-0.360425 -0.91566,-0.103713 -1.83675,-0.158323 -2.76326,-0.163829 -3.3731,0.03281 -6.12907,0.884725 -8.26793,2.555741 -2.13891,1.671104 -3.86822,3.964716 -5.18794,6.880842 l -0.17475,0 0,-8.388074 -14.32963,0 0,45.522775 15.72764,0 0,-19.222669 c 0.0182,-4.492548 1.00844,-7.980295 2.97078,-10.463249 1.96229,-2.482896 4.78743,-3.742561 8.47545,-3.779001 0.91559,-0.01089 1.81483,0.01096 2.69772,0.06553 0.88283,0.05464 1.76022,0.20755 2.6322,0.458722 z" />
  <path
     inkscape:connector-curvature="0"
     id="path3081"
     style="font-size:87.37689209px;font-style:normal;font-weight:normal;line-height:125%;letter-spacing:-1.24000001px;word-spacing:0px;fill:#002255;fill-opacity:1;stroke:none;font-family:Frutiger LT Std 55 Roman;-inkscape-font-specification:Frutiger LT Std 55 Roman"
     d="m 663.00236,69.832577 0,-2.8834 c 0.0964,-6.988214 -1.6256,-12.933401 -5.16609,-17.835579 -3.54058,-4.902101 -9.47848,-7.46148 -17.81373,-7.678145 -7.20852,0.05102 -13.04085,2.133469 -17.497,6.247366 -4.45617,4.113977 -6.74978,9.953586 -6.88084,17.518843 0.16383,7.568941 2.69772,13.423111 7.60169,17.562529 4.90395,4.139428 11.195,6.236444 18.87317,6.291055 2.9398,0.0055 5.81955,-0.223901 8.63928,-0.688084 2.81964,-0.464183 5.50281,-1.195955 8.04949,-2.195316 l 0,-11.096723 c -2.37558,1.254217 -4.74564,2.153458 -7.11021,2.697726 -2.36464,0.544289 -4.62548,0.810057 -6.78254,0.797305 -3.86641,0.02913 -6.9464,-0.640746 -9.23999,-2.009643 -2.29363,-1.368874 -3.6698,-3.611516 -4.1285,-6.727934 z m -31.63002,-8.912328 c 0.16199,-2.690415 0.95201,-4.933058 2.37007,-6.727934 1.41801,-1.794809 3.54051,-2.726816 6.3675,-2.796025 3.11638,0.06921 5.35902,1.001218 6.72794,2.796025 1.36885,1.794875 2.03873,4.037517 2.00964,6.727934 z" />
  <path
     style="fill:#002255;fill-opacity:1"
     d="m 143.73783,88.47697 c -6.87988,-1.8564 -12.00513,-4.88167 -16.46234,-9.71716 -4.40928,-4.7835 -6.37762,-9.1556 -7.56381,-16.80075 -2.35651,-15.18809 4.22867,-29.1131 16.63912,-35.18495 6.32846,-3.09622 14.88143,-4.63386 23.35489,-4.63386 5.29944,0 9.84779,0.86249 14.28621,1.70821 l -1.46696,13.61995 c 0,0 -1.11372,-0.23735 -4.14562,-1.02382 -2.91124,-0.75517 -5.93649,-1.11087 -8.8837,-1.09363 -5.94014,0.0347 -11.56322,1.5845 -15.2967,4.43216 -8.89475,6.78437 -8.74936,24.54102 0.26199,31.99493 5.56483,4.60307 15.62876,6.16137 24.66079,3.81849 l 4.23227,-1.09784 1.23003,13.76081 c -2.58195,0.60983 -8.20657,1.70141 -15.03354,1.70141 -8.73839,0 -11.6066,-0.349 -15.81263,-1.48395 z"
     id="path3064"
     inkscape:connector-curvature="0"
     sodipodi:nodetypes="sssssccsssssccss" />
</svg>
