<?xml version="1.0" encoding="utf-8"?>
<!-- Generator: Adobe Illustrator 21.1.0, SVG Export Plug-In . SVG Version: 6.00 Build 0)  -->
<svg version="1.1" id="Layer_1" xmlns="http://www.w3.org/2000/svg" xmlns:xlink="http://www.w3.org/1999/xlink" x="0px" y="0px"
	 viewBox="0 0 300 121.6" style="enable-background:new 0 0 300 121.6;" xml:space="preserve">
<style type="text/css">
	.st0{fill:#3E3E3E;}
	.st1{fill:url(#SVGID_1_);}
	.st2{fill:url(#SVGID_2_);}
	.st3{fill:url(#SVGID_3_);}
	.st4{fill:url(#SVGID_4_);}
	.st5{fill:url(#SVGID_5_);}
	.st6{fill:url(#SVGID_6_);}
</style>
<g>
	<path class="st0" d="M300,112.5c0,5-4.1,9.1-9.1,9.1H9.1c-5,0-9.1-4.1-9.1-9.1V9.1C0,4.1,4.1,0,9.1,0h281.8c5,0,9.1,4.1,9.1,9.1
		V112.5z"/>
	<g>
		<g>
			<linearGradient id="SVGID_1_" gradientUnits="userSpaceOnUse" x1="105.0165" y1="86.8986" x2="191.2215" y2="136.6322">
				<stop  offset="0.1054" style="stop-color:#78D4FC"/>
				<stop  offset="0.771" style="stop-color:#8FFFB0"/>
			</linearGradient>
			<path class="st1" d="M71.2,46.9h-27c-2.6,0-2.6,4.3,0,4.3h11.2v26.5c0,1.6,1.2,2.4,2.3,2.4c1.1,0,2.4-0.8,2.4-2.4l0-26.5h11.1
				C73.9,51.2,73.9,46.9,71.2,46.9z"/>
			<linearGradient id="SVGID_2_" gradientUnits="userSpaceOnUse" x1="120.0874" y1="60.7759" x2="206.2912" y2="110.5088">
				<stop  offset="0.1054" style="stop-color:#78D4FC"/>
				<stop  offset="0.771" style="stop-color:#8FFFB0"/>
			</linearGradient>
			<path class="st2" d="M133.6,71.6c-2.2,3-5.8,4.1-9.1,4.1c-3.4,0-6.8-1.4-8.9-4.1c-1.9-2.2-2.7-5.4-2.7-8.2
				c0-7.1,4.6-12.6,11.4-12.6c3.1,0,6.3,1.1,8.6,3.8c1.7,2,5.1-0.6,3.3-2.6c-3.4-3.8-7-5.3-11.4-5.3c-9.4,0-16,6.3-16.4,15.5
				c-0.2,4.5,1.1,8.9,3.7,12.2c3.1,3.6,7.8,5.5,12.5,5.5c4.6,0,9.3-1.8,12.3-5.5C138.9,71.9,135.2,69.5,133.6,71.6z"/>
			<linearGradient id="SVGID_3_" gradientUnits="userSpaceOnUse" x1="111.1271" y1="76.3082" x2="197.3327" y2="126.0421">
				<stop  offset="0.1054" style="stop-color:#78D4FC"/>
				<stop  offset="0.771" style="stop-color:#8FFFB0"/>
			</linearGradient>
			<path class="st3" d="M92.7,47.2c-2.4-0.5-5.9-0.9-8.9,0c-11.8,3.3-14.8,17.9-7.9,26.9c3,3.7,7.9,5.6,12.9,5.6
				c4.1,0.1,8.4-1.1,11.3-3.8c2.5-2.5-0.8-5.1-3-3.1c-2.5,1.9-5.5,2.7-8.4,2.7c-5.1,0-11.9-3.1-11.9-12.4c0-7.4,5.2-10.7,8.5-11.7
				c2.2-0.6,4.3-0.5,6.3-0.1c2.1,0.5,7.9,2.6,7.9,9.9H83.8c-2.2,0-3,3.6-1.5,4.2h18.5c2.6,0,3.1-1.7,3.1-3.3
				C104.2,51,95.6,47.8,92.7,47.2z"/>
			<linearGradient id="SVGID_4_" gradientUnits="userSpaceOnUse" x1="148.7934" y1="11.0178" x2="234.998" y2="60.7511">
				<stop  offset="0.1054" style="stop-color:#78D4FC"/>
				<stop  offset="0.771" style="stop-color:#8FFFB0"/>
			</linearGradient>
			<path class="st4" d="M257.8,62.1c-0.6-8-5.6-14.3-13-16.4c-1.6-0.4-3.2-0.6-5.1-0.6c-2.1,0-3.8,0.2-5.3,0.6
				c-7.4,2.1-12.2,8.2-13,16.5c-0.2,5.4,1.2,9.7,4.3,13.4c3.4,4.1,8.4,6.3,14,6.3c5.6,0,10.6-2.2,14-6.3
				C256.7,71.8,258.1,67.3,257.8,62.1z M248,70.9c-2.1,2.4-5.3,3.8-8.3,3.8c-3.2,0-6.3-1.4-8.3-3.8c-1.6-1.9-2.5-4.6-2.5-7.4
				c0-5.5,3-9.8,7.6-11c0.6-0.2,1.7-0.4,3.1-0.4c1,0,2.2,0.2,3.2,0.4c4.7,1.2,7.7,5.6,7.7,11.2C250.5,66.2,249.5,69,248,70.9z"/>
			<linearGradient id="SVGID_5_" gradientUnits="userSpaceOnUse" x1="127.2865" y1="48.2961" x2="213.4906" y2="98.0291">
				<stop  offset="0.1054" style="stop-color:#78D4FC"/>
				<stop  offset="0.771" style="stop-color:#8FFFB0"/>
			</linearGradient>
			<path class="st5" d="M158.7,46.5c-4.8,0-9.7,1.8-12,6.3V39.5c0-2.7-4.7-2.7-4.7,0v38.2c0,1.4,1,2.3,2.4,2.3
				c1.5,0,2.3-0.9,2.3-2.3V61.7c0-6.6,5.8-10.9,12-10.9c5.2,0,9.9,4.1,9.9,9.9v16.9c0,1.4,1,2.3,2.4,2.3c1.5,0,2.3-0.9,2.3-2.3V60.8
				C173.1,51.6,166.1,46.5,158.7,46.5z"/>
			<linearGradient id="SVGID_6_" gradientUnits="userSpaceOnUse" x1="139.8049" y1="26.5985" x2="226.0091" y2="76.3317">
				<stop  offset="0.1054" style="stop-color:#78D4FC"/>
				<stop  offset="0.771" style="stop-color:#8FFFB0"/>
			</linearGradient>
			<path class="st6" d="M214.6,58.4h-13.8c-2.2,0-3.5,1.8-3.5,3.6c0,0.9,0.3,1.7,0.9,2.3c0.5,0.5,1.3,1.1,2.6,1.1h10.4v6.9
				c-2.5,3.1-6.7,5-11.1,5l-0.2,0c-7.8-0.2-14.5-7.4-14.6-15.7c0-8.4,6.4-13.8,12.4-15.2c1-0.3,2-0.4,3.1-0.4
				c3.9,0,7.7,1.7,10.1,4.4c0.7,0.8,1.7,1.3,2.7,1.3c1.4,0,2.7-0.9,3.3-2.2c0.6-1.3,0.4-2.7-0.6-3.9c-3.5-4.1-9.6-6.6-16.2-6.6
				c-1.3,0-2.6,0.1-3.6,0.2c-10.5,2-18.4,11.5-18.4,22c-0.1,6.2,2.1,12,6.3,16.3c4.1,4.2,9.6,6.6,15.5,6.6l0.2,0
				c6.8,0,13.4-3.2,17.3-8.2c0.7-0.7,1-1.7,1-3V62.1C218.4,59.7,217,58.4,214.6,58.4z"/>
		</g>
	</g>
</g>
</svg>
