<?xml version="1.0" encoding="UTF-8"?>
<svg width="166px" height="36px" viewBox="0 0 166 36" version="1.1" xmlns="http://www.w3.org/2000/svg" xmlns:xlink="http://www.w3.org/1999/xlink">
    <!-- Generator: Sketch 43.2 (39069) - http://www.bohemiancoding.com/sketch -->
    <title>techgo-logo-color</title>
    <desc>Created with Sketch.</desc>
    <defs>
        <linearGradient x1="202.318258%" y1="120.469565%" x2="479.610779%" y2="270.250593%" id="linearGradient-1">
            <stop stop-color="#00D6FF" offset="10.54%"></stop>
            <stop stop-color="#00FFAE" offset="77.1%"></stop>
        </linearGradient>
        <linearGradient x1="40.3180372%" y1="42.3622376%" x2="336.771718%" y2="192.726897%" id="linearGradient-2">
            <stop stop-color="#00D6FF" offset="10.54%"></stop>
            <stop stop-color="#00FFAE" offset="77.1%"></stop>
        </linearGradient>
        <linearGradient x1="122.21813%" y1="89.3045771%" x2="393.501407%" y2="239.518342%" id="linearGradient-3">
            <stop stop-color="#00D6FF" offset="10.54%"></stop>
            <stop stop-color="#00FFAE" offset="77.1%"></stop>
        </linearGradient>
        <linearGradient x1="-199.110623%" y1="-92.6392857%" x2="37.4037793%" y2="42.6982143%" id="linearGradient-4">
            <stop stop-color="#00D6FF" offset="10.54%"></stop>
            <stop stop-color="#00FFAE" offset="77.1%"></stop>
        </linearGradient>
        <linearGradient x1="-47.0515454%" y1="25.5971332%" x2="231.205263%" y2="142.418815%" id="linearGradient-5">
            <stop stop-color="#00D6FF" offset="10.54%"></stop>
            <stop stop-color="#00FFAE" offset="77.1%"></stop>
        </linearGradient>
        <linearGradient x1="-94.6755713%" y1="-27.7307246%" x2="118.55398%" y2="82.1078261%" id="linearGradient-6">
            <stop stop-color="#00D6FF" offset="10.54%"></stop>
            <stop stop-color="#00FFAE" offset="77.1%"></stop>
        </linearGradient>
    </defs>
    <g id="Page-1" stroke="none" stroke-width="1" fill="none" fill-rule="evenodd">
        <g id="techgo-logo-color" transform="translate(0.000000, -1.000000)">
            <g id="Group" transform="translate(0.000000, 1.000000)" fill-rule="nonzero">
                <path d="M22.9,7.4 L2.3,7.4 C0.3,7.4 0.3,10.7 2.3,10.7 L10.8,10.7 L10.8,30.9 C10.8,32.1 11.7,32.7 12.6,32.7 C13.4,32.7 14.5,32.1 14.5,30.9 L14.5,10.7 L23,10.7 C25,10.7 25,7.4 22.9,7.4 Z" id="Shape" fill="url(#linearGradient-1)"></path>
                <path d="M70.5,26.2 C68.8,28.5 66.1,29.3 63.6,29.3 C61,29.3 58.4,28.2 56.8,26.2 C55.4,24.5 54.8,22.1 54.8,20 C54.8,14.6 58.3,10.4 63.5,10.4 C65.9,10.4 68.3,11.2 70.1,13.3 C71.4,14.9 74,12.9 72.6,11.3 C70,8.4 67.3,7.3 63.9,7.3 C56.6,7.2 51.6,12 51.3,19 C51.1,22.5 52.1,25.8 54.1,28.3 C56.5,31 60.1,32.5 63.6,32.5 C67.1,32.5 70.6,31.1 73,28.3 C74.5,26.4 71.7,24.6 70.5,26.2 Z" id="Shape" fill="url(#linearGradient-2)"></path>
                <path d="M39.4,7.7 C37.6,7.3 34.9,7 32.6,7.7 C23.6,10.2 21.3,21.3 26.6,28.2 C28.9,31.1 32.6,32.5 36.4,32.5 C39.5,32.6 42.8,31.7 45,29.6 C46.9,27.7 44.4,25.7 42.7,27.2 C40.8,28.6 38.5,29.2 36.3,29.2 C32.4,29.2 27.3,26.9 27.3,19.7 C27.3,14.1 31.2,11.5 33.8,10.8 C35.4,10.3 37.1,10.4 38.6,10.8 C40.2,11.2 44.7,12.8 44.7,18.3 L32.6,18.3 C30.9,18.3 30.3,21 31.5,21.5 L45.6,21.5 C47.6,21.5 47.9,20.2 48,19 C48.1,10.5 41.5,8.1 39.4,7.7 Z" id="Shape" fill="url(#linearGradient-3)"></path>
                <path d="M165.1,19 C164.6,12.9 160.8,8.1 155.2,6.5 C154,6.1 152.7,6 151.3,6 C149.7,6 148.4,6.2 147.3,6.5 C141.7,8.1 138,12.8 137.4,19 C137.2,23.1 138.3,26.4 140.6,29.2 C143.2,32.3 147,34 151.3,34 C155.6,34 159.4,32.3 162,29.2 C164.3,26.4 165.4,22.9 165.1,19 Z M157.6,25.7 C156,27.5 153.6,28.6 151.2,28.6 C148.8,28.6 146.4,27.5 144.9,25.7 C143.7,24.3 143,22.2 143,20.1 C143,15.9 145.3,12.6 148.8,11.7 C149.2,11.6 150.1,11.4 151.2,11.4 C152,11.4 152.9,11.5 153.7,11.7 C157.3,12.6 159.6,16 159.6,20.2 C159.6,22.1 158.8,24.3 157.6,25.7 Z" id="Shape" fill="url(#linearGradient-4)"></path>
                <path d="M89.6,7.1 C86,7.1 82.2,8.5 80.4,11.9 L80.4,1.7 C80.4,-0.3 76.8,-0.4 76.8,1.7 L76.8,30.8 C76.8,31.9 77.5,32.5 78.6,32.5 C79.7,32.5 80.3,31.8 80.3,30.8 L80.3,18.7 C80.3,13.7 84.7,10.4 89.4,10.4 C93.3,10.4 96.9,13.5 96.9,18 L96.9,30.9 C96.9,32 97.6,32.6 98.7,32.6 C99.8,32.6 100.4,31.9 100.4,30.9 L100.4,18 C100.6,11 95.2,7.1 89.6,7.1 Z" id="Shape" fill="url(#linearGradient-5)"></path>
                <path d="M132.3,16.2 L121.8,16.2 C120.1,16.2 119.1,17.6 119.1,18.9 C119.1,19.6 119.3,20.2 119.8,20.7 C120.1,21.1 120.8,21.5 121.8,21.5 L129.7,21.5 L129.7,26.7 C127.8,29 124.6,30.5 121.2,30.5 L121.1,30.5 C115.2,30.4 110.1,24.9 110,18.6 C110,12.2 114.9,8.1 119.4,7 C120.2,6.8 121,6.7 121.8,6.7 C124.8,6.7 127.7,8 129.5,10.1 C130,10.7 130.8,11.1 131.5,11.1 C132.5,11.1 133.6,10.4 134,9.4 C134.5,8.4 134.3,7.3 133.6,6.5 C130.9,3.4 126.3,1.5 121.2,1.5 C120.2,1.5 119.3,1.6 118.4,1.7 C110.4,3.2 104.4,10.4 104.4,18.5 C104.3,23.2 106,27.6 109.2,30.9 C112.3,34.1 116.5,35.9 121,36 L121.2,36 C126.4,36 131.4,33.6 134.4,29.7 C134.9,29.1 135.2,28.4 135.2,27.4 L135.2,19 C135.1,17.2 134.1,16.2 132.3,16.2 Z" id="Shape" fill="url(#linearGradient-6)"></path>
            </g>
            <rect id="Rectangle-path" x="0" y="0" width="166" height="38"></rect>
        </g>
    </g>
</svg>